<svg width="56" height="56" viewBox="0 0 56 56" fill="none" xmlns="http://www.w3.org/2000/svg">
<path d="M4.66675 46.6667V35C4.66675 31.134 7.80075 28 11.6667 28H21.0001" stroke="#DD1D21" stroke-width="2" stroke-linecap="round" stroke-linejoin="round"/>
<path d="M38.1881 27.2904C38.9814 26.4193 40.3521 26.4193 41.1454 27.2904L43.0198 29.3486C43.4207 29.7888 43.997 30.0275 44.5918 29.9997L47.3725 29.8698C48.5495 29.8148 49.5187 30.784 49.4637 31.961L49.3338 34.7416C49.306 35.3365 49.5447 35.9128 49.9849 36.3137L52.0431 38.1881C52.9142 38.9814 52.9142 40.3521 52.0431 41.1454L49.9849 43.0198C49.5447 43.4207 49.306 43.997 49.3338 44.5918L49.4637 47.3725C49.5187 48.5495 48.5495 49.5187 47.3725 49.4637L44.5918 49.3338C43.997 49.306 43.4207 49.5447 43.0198 49.9849L41.1454 52.0431C40.3521 52.9142 38.9814 52.9142 38.1881 52.0431L36.3137 49.9849C35.9128 49.5447 35.3365 49.306 34.7416 49.3338L31.961 49.4637C30.784 49.5187 29.8148 48.5495 29.8698 47.3725L29.9997 44.5918C30.0275 43.997 29.7888 43.4207 29.3486 43.0198L27.2904 41.1454C26.4193 40.3521 26.4193 38.9814 27.2904 38.1881L29.3486 36.3137C29.7888 35.9128 30.0275 35.3365 29.9997 34.7416L29.8698 31.961C29.8148 30.784 30.784 29.8148 31.961 29.8698L34.7416 29.9997C35.3365 30.0275 35.9128 29.7888 36.3137 29.3486L38.1881 27.2904Z" stroke="#DD1D21" stroke-width="2"/>
<path d="M35.8477 39.6667L38.3931 42.2122L43.484 37.1213" stroke="#DD1D21" stroke-width="2" stroke-linecap="round" stroke-linejoin="round"/>
<path d="M21.0001 27.9999C26.1547 27.9999 30.3334 23.8212 30.3334 18.6666C30.3334 13.5119 26.1547 9.33325 21.0001 9.33325C15.8454 9.33325 11.6667 13.5119 11.6667 18.6666C11.6667 23.8212 15.8454 27.9999 21.0001 27.9999Z" stroke="#DD1D21" stroke-width="2" stroke-linecap="round" stroke-linejoin="round"/>
</svg>
