<svg width="56" height="56" viewBox="0 0 56 56" fill="none" xmlns="http://www.w3.org/2000/svg">
<path d="M37.334 51.335V18.666C37.334 12.0659 37.334 8.76584 35.2836 6.71544C33.2331 4.66504 29.9331 4.66504 23.333 4.66504H20.9995C14.3994 4.66504 11.0993 4.66504 9.04893 6.71544C6.99854 8.76584 6.99854 12.0659 6.99854 18.666V51.335" stroke="#DD1D21" stroke-width="2"/>
<path d="M25.6665 13.999H18.666C16.466 13.999 15.366 13.999 14.6825 14.6825C13.999 15.366 13.999 16.466 13.999 18.666C13.999 20.8661 13.999 21.9661 14.6825 22.6496C15.366 23.333 16.466 23.333 18.666 23.333H25.6665C27.8665 23.333 28.9666 23.333 29.65 22.6496C30.3335 21.9661 30.3335 20.8661 30.3335 18.666C30.3335 16.466 30.3335 15.366 29.65 14.6825C28.9666 13.999 27.8665 13.999 25.6665 13.999Z" stroke="#DD1D21" stroke-width="2"/>
<path d="M16.3325 39.6675H28" stroke="#DD1D21" stroke-width="2" stroke-linecap="round"/>
<path d="M39.6675 51.335H4.66504" stroke="#DD1D21" stroke-width="2" stroke-linecap="round"/>
<path d="M45.5015 9.33203L48.3789 11.634C48.7005 11.8913 48.8613 12.0199 49.0076 12.151C50.3871 13.3878 51.2204 15.1211 51.3243 16.9711C51.3352 17.1672 51.3352 17.3731 51.3352 17.785V43.1678C51.3352 45.1008 49.7681 46.668 47.835 46.668C45.9019 46.668 44.3347 45.1008 44.3347 43.1678V43.0012C44.3347 41.16 42.8422 39.6675 41.0011 39.6675H37.3342" stroke="#DD1D21" stroke-width="2" stroke-linecap="round"/>
<path d="M51.335 18.666H47.8347C45.9017 18.666 44.3345 20.2331 44.3345 22.1663V27.8108C44.3345 29.3173 45.2984 30.6548 46.7279 31.1313L51.335 32.667" stroke="#DD1D21" stroke-width="2" stroke-linecap="round"/>
</svg>
