<svg width="56" height="56" viewBox="0 0 56 56" fill="none" xmlns="http://www.w3.org/2000/svg">
<path d="M28 14V42M21 35.4247L23.051 36.9623C25.7833 39.0133 30.2143 39.0133 32.949 36.9623C35.6837 34.9113 35.6837 31.5887 32.949 29.5377C31.584 28.511 29.792 28 28 28C26.3083 28 24.6167 27.4867 23.3263 26.4623C20.7457 24.4113 20.7457 21.0887 23.3263 19.0377C25.907 16.9867 30.093 16.9867 32.6737 19.0377L33.642 19.8077M49 28C49 30.7578 48.4568 33.4885 47.4015 36.0364C46.3461 38.5842 44.7993 40.8992 42.8492 42.8492C40.8992 44.7993 38.5842 46.3461 36.0364 47.4015C33.4885 48.4568 30.7578 49 28 49C25.2422 49 22.5115 48.4568 19.9636 47.4015C17.4158 46.3461 15.1008 44.7993 13.1508 42.8492C11.2007 40.8992 9.65388 38.5842 8.59853 36.0364C7.54318 33.4885 7 30.7578 7 28C7 22.4305 9.21249 17.089 13.1508 13.1508C17.089 9.21249 22.4305 7 28 7C33.5695 7 38.911 9.21249 42.8492 13.1508C46.7875 17.089 49 22.4305 49 28Z" stroke="#DD1D21" stroke-width="2" stroke-linecap="round" stroke-linejoin="round"/>
</svg>
