<svg width="56" height="56" viewBox="0 0 56 56" fill="none" xmlns="http://www.w3.org/2000/svg">
<path fill-rule="evenodd" clip-rule="evenodd" d="M7.12988 17.7078C7.12988 14.4279 9.7887 11.7677 13.0736 11.7677C14.8852 11.7677 16.4045 11.7677 16.4045 11.7677V7.12988H27.9999V11.7677H32.6414C41.6029 11.7677 48.8699 19.0322 48.8699 27.9924C48.8699 33.3055 48.8699 38.8782 48.8699 42.9298C48.8699 44.5029 48.2438 46.0167 47.1294 47.1298C46.0149 48.2429 44.5038 48.8699 42.9261 48.8699C34.9913 48.8699 21.0084 48.8699 13.0736 48.8699C11.4959 48.8699 9.98493 48.2429 8.87047 47.1298C7.75601 46.0167 7.12988 44.5029 7.12988 42.9298C7.12988 36.0065 7.12988 24.6311 7.12988 17.7078Z" stroke="#DD1D21" stroke-width="2" stroke-miterlimit="1.5" stroke-linecap="round" stroke-linejoin="round"/>
<path fill-rule="evenodd" clip-rule="evenodd" d="M27.9977 21.0417C27.9977 21.0417 34.9545 27.9823 34.9552 32.3719C34.9559 36.2109 31.8382 39.3279 27.9992 39.3279C24.1602 39.3279 21.071 36.2109 21.0432 32.3719C21.0659 27.9801 27.9977 21.0417 27.9977 21.0417Z" stroke="#DD1D21" stroke-width="2" stroke-miterlimit="1.5" stroke-linecap="round" stroke-linejoin="round"/>
</svg>
