<svg width="56" height="56" viewBox="0 0 56 56" fill="none" xmlns="http://www.w3.org/2000/svg">
<path d="M23.2223 22.453L26.8588 14.7424C27.3257 13.7525 28.6743 13.7525 29.1412 14.7424L32.7777 22.453L40.9101 23.6971C41.9535 23.8567 42.3694 25.1991 41.614 25.9691L35.7304 31.9668L37.119 40.44C37.2973 41.5281 36.206 42.3578 35.2723 41.844L28 37.8412L20.7277 41.844C19.794 42.3578 18.7027 41.5281 18.881 40.44L20.2696 31.9668L14.3861 25.9691C13.6306 25.1991 14.0465 23.8567 15.0899 23.6971L23.2223 22.453Z" stroke="#DD1D21" stroke-width="2" stroke-linecap="round" stroke-linejoin="round"/>
<path d="M51.3333 28L53.6666 28" stroke="#DD1D21" stroke-width="2" stroke-linecap="round" stroke-linejoin="round"/>
<path d="M28 4.66675V2.33341" stroke="#DD1D21" stroke-width="2" stroke-linecap="round" stroke-linejoin="round"/>
<path d="M28 53.6667V51.3334" stroke="#DD1D21" stroke-width="2" stroke-linecap="round" stroke-linejoin="round"/>
<path d="M46.6667 46.6667L44.3334 44.3334" stroke="#DD1D21" stroke-width="2" stroke-linecap="round" stroke-linejoin="round"/>
<path d="M46.6667 9.33325L44.3334 11.6666" stroke="#DD1D21" stroke-width="2" stroke-linecap="round" stroke-linejoin="round"/>
<path d="M9.33325 46.6667L11.6666 44.3334" stroke="#DD1D21" stroke-width="2" stroke-linecap="round" stroke-linejoin="round"/>
<path d="M9.33325 9.33325L11.6666 11.6666" stroke="#DD1D21" stroke-width="2" stroke-linecap="round" stroke-linejoin="round"/>
<path d="M2.33325 28L4.66659 28" stroke="#DD1D21" stroke-width="2" stroke-linecap="round" stroke-linejoin="round"/>
</svg>
