<svg width="56" height="56" viewBox="0 0 56 56" fill="none" xmlns="http://www.w3.org/2000/svg">
<path d="M24.5 14H47.25M24.5 14C24.5 14.9283 24.1313 15.8185 23.4749 16.4749C22.8185 17.1313 21.9283 17.5 21 17.5C20.0717 17.5 19.1815 17.1313 18.5251 16.4749C17.8687 15.8185 17.5 14.9283 17.5 14M24.5 14C24.5 13.0717 24.1313 12.1815 23.4749 11.5251C22.8185 10.8687 21.9283 10.5 21 10.5C20.0717 10.5 19.1815 10.8687 18.5251 11.5251C17.8687 12.1815 17.5 13.0717 17.5 14M17.5 14H8.75M24.5 42H47.25M24.5 42C24.5 42.9283 24.1313 43.8185 23.4749 44.4749C22.8185 45.1312 21.9283 45.5 21 45.5C20.0717 45.5 19.1815 45.1312 18.5251 44.4749C17.8687 43.8185 17.5 42.9283 17.5 42M24.5 42C24.5 41.0717 24.1313 40.1815 23.4749 39.5251C22.8185 38.8687 21.9283 38.5 21 38.5C20.0717 38.5 19.1815 38.8687 18.5251 39.5251C17.8687 40.1815 17.5 41.0717 17.5 42M17.5 42H8.75M38.5 28H47.25M38.5 28C38.5 28.9283 38.1312 29.8185 37.4749 30.4749C36.8185 31.1313 35.9283 31.5 35 31.5C34.0717 31.5 33.1815 31.1313 32.5251 30.4749C31.8687 29.8185 31.5 28.9283 31.5 28M38.5 28C38.5 27.0717 38.1312 26.1815 37.4749 25.5251C36.8185 24.8687 35.9283 24.5 35 24.5C34.0717 24.5 33.1815 24.8687 32.5251 25.5251C31.8687 26.1815 31.5 27.0717 31.5 28M31.5 28H8.75" stroke="#DD1D21" stroke-width="2" stroke-linecap="round" stroke-linejoin="round"/>
</svg>
