<svg width="56" height="56" viewBox="0 0 56 56" fill="none" xmlns="http://www.w3.org/2000/svg">
<path d="M7 30.625C7 29.176 8.176 28 9.625 28H14.875C16.324 28 17.5 29.176 17.5 30.625V46.375C17.5 47.824 16.324 49 14.875 49H9.625C8.92881 49 8.26113 48.7234 7.76884 48.2312C7.27656 47.7389 7 47.0712 7 46.375V30.625ZM22.75 20.125C22.75 18.676 23.926 17.5 25.375 17.5H30.625C32.074 17.5 33.25 18.676 33.25 20.125V46.375C33.25 47.824 32.074 49 30.625 49H25.375C24.6788 49 24.0111 48.7234 23.5188 48.2312C23.0266 47.7389 22.75 47.0712 22.75 46.375V20.125ZM38.5 9.625C38.5 8.176 39.676 7 41.125 7H46.375C47.824 7 49 8.176 49 9.625V46.375C49 47.824 47.824 49 46.375 49H41.125C40.4288 49 39.7611 48.7234 39.2688 48.2312C38.7766 47.7389 38.5 47.0712 38.5 46.375V9.625Z" stroke="#DD1D21" stroke-width="2" stroke-linecap="round" stroke-linejoin="round"/>
</svg>
