<svg width="56" height="56" viewBox="0 0 56 56" fill="none" xmlns="http://www.w3.org/2000/svg">
<path d="M27.9955 48.4886C16.6759 48.4886 7.5 39.3118 7.5 28.0089C7.5 16.706 16.6714 7.51123 27.9955 7.51123C39.3196 7.51123 48.5 16.6836 48.5 28.0089C48.5 39.3342 39.3196 48.4886 27.9955 48.4886Z" stroke="#DD1D21" stroke-width="2"/>
<path d="M33.2491 28.7158L41.4903 32.1534L32.6607 25.5008L41.3611 23.4376L30.2998 23.2294L36.1121 16.4585L27.0565 22.7809L27.7776 13.8857L24.1718 24.3418L19.5256 16.7168L22.7511 27.2949L14.5098 23.8538L23.3251 30.5243L14.6497 32.5696L25.6931 32.7849L19.8736 39.5487L28.9401 33.2155L28.201 42.1142L31.8211 31.6653L36.4709 39.2903L33.2455 28.7158H33.2491Z" stroke="#DD1D21" stroke-width="1.6"/>
</svg>
