<svg width="56" height="56" viewBox="0 0 56 56" fill="none" xmlns="http://www.w3.org/2000/svg">
<path d="M38.4293 11.2964H17.5499C9.55311 11.2964 7.31902 13.2173 7.1311 20.6921C11.1608 20.6921 14.418 23.9702 14.418 27.9999C14.418 32.0296 11.1608 35.2868 7.1311 35.3077C7.31902 42.7825 9.55311 44.7034 17.5499 44.7034H38.4293C46.7811 44.7034 48.869 42.6155 48.869 34.2637V21.7361C48.869 13.3843 46.7811 11.2964 38.4293 11.2964Z" stroke="#DD1D21" stroke-width="2" stroke-linecap="round" stroke-linejoin="round"/>
<path d="M21.7222 11.2964V18.6042" stroke="#DD1D21" stroke-width="1.91688" stroke-linecap="round" stroke-linejoin="round"/>
<path d="M21.7222 37.3955V44.7033" stroke="#DD1D21" stroke-width="2" stroke-linecap="round" stroke-linejoin="round"/>
<path d="M34.3164 22.4249L35.6109 25.0348C35.7362 25.2854 35.9868 25.4733 36.2582 25.515L39.1395 25.9326C39.8494 26.037 40.1418 26.9139 39.6198 27.415L37.5318 29.4403C37.323 29.6283 37.2395 29.9206 37.2813 30.2129L37.7824 33.0734C37.9077 33.7833 37.156 34.3261 36.5296 33.9921L33.9615 32.6349C33.7109 32.5096 33.3977 32.5096 33.1472 32.6349L30.579 33.9921C29.9317 34.3261 29.201 33.7833 29.3262 33.0734L29.8273 30.2129C29.8691 29.9206 29.7856 29.6491 29.5768 29.4403L27.5097 27.415C26.9878 26.9139 27.2801 26.037 27.99 25.9326L30.8713 25.515C31.1636 25.4733 31.3933 25.3062 31.5186 25.0348L32.7922 22.4249C33.0845 21.7776 34.0032 21.7776 34.3164 22.4249Z" stroke="#DD1D21" stroke-width="2" stroke-linecap="round" stroke-linejoin="round"/>
</svg>
