<svg width="56" height="56" viewBox="0 0 56 56" fill="none" xmlns="http://www.w3.org/2000/svg">
<path d="M27.9999 7.1206C35.874 7.12061 39.811 7.12061 42.2572 9.56677C44.7034 12.013 44.7034 15.95 44.7034 23.8241L44.7034 32.1759C44.7034 40.0499 44.7034 43.9871 42.2572 46.4331C39.811 48.8794 35.874 48.8794 27.9999 48.8794C20.1258 48.8794 16.1886 48.8794 13.7426 46.4331C11.2964 43.9871 11.2964 40.0499 11.2964 32.1759L11.2964 23.8241C11.2964 15.95 11.2964 12.013 13.7426 9.56677C16.1886 7.1206 20.1258 7.1206 27.9999 7.1206Z" stroke="#DD1D21" stroke-width="2"/>
<path d="M32.289 44.7546H23.9373" stroke="#DD1D21" stroke-width="2" stroke-linecap="round"/>
<path d="M35.3328 22.0504L24.6825 30.9624L20.3504 25.9659" stroke="#DD1D21" stroke-width="2" stroke-linecap="round" stroke-linejoin="round"/>
<path d="M30.0299 11.1733H25.854" stroke="#DD1D21" stroke-width="2" stroke-linecap="round"/>
<path d="M11.7969 40.7017H44.3649" stroke="#DD1D21" stroke-width="2" stroke-linecap="round"/>
</svg>
