<svg width="113" height="56" viewBox="0 0 113 56" fill="none" xmlns="http://www.w3.org/2000/svg">
<path d="M7.06942 4.49822C6.49873 4.01783 5.77621 3.70462 5.01335 3.70462C4.45226 3.70462 3.68939 4.04281 3.68939 4.69998C3.68939 5.38982 4.52527 5.65884 5.06523 5.83946L5.85308 6.07583C7.5133 6.57158 8.79113 7.40169 8.79113 9.33479C8.79113 10.5127 8.50674 11.7291 7.55943 12.5323C6.63324 13.324 5.38614 13.6564 4.17939 13.6564C2.68635 13.6564 1.20674 13.1529 0 12.2978L1.32972 9.8075C2.10218 10.48 3.01108 11.0335 4.07178 11.0335C4.80391 11.0335 5.57252 10.6741 5.57252 9.8344C5.57252 8.99467 4.35042 8.66032 3.69132 8.47201C1.74862 7.93013 0.476543 7.41708 0.476543 5.12274C0.476543 2.68811 2.1925 1.12012 4.57908 1.12012C5.78005 1.12012 7.24814 1.49867 8.305 2.09819L7.07326 4.50015L7.06942 4.49822Z" fill="#DD1D21"/>
<path d="M12.9023 0.232422V6.2642H12.9426C13.6075 5.37836 14.4126 4.97099 15.5406 4.97099C17.5909 4.97099 18.5767 6.31993 18.5767 8.38176V13.3355H15.7058V9.18304C15.7058 8.24341 15.5617 7.25957 14.4126 7.25957C13.2635 7.25957 12.9023 8.24341 12.9023 9.18304V13.3355H10.0334V0.232422H12.9023Z" fill="#DD1D21"/>
<path d="M28.6486 9.76938H22.5879C22.5879 10.9338 23.2066 11.5641 24.3903 11.5641C25.0033 11.5641 25.4414 11.3681 25.7546 10.832H28.5179C28.0643 12.7382 26.2542 13.6106 24.4058 13.6106C21.7213 13.6106 19.7209 12.0925 19.7209 9.30245C19.7209 6.51235 21.5599 4.9751 24.204 4.9751C27.0075 4.9751 28.6466 6.71027 28.6466 9.4677V9.7713L28.6486 9.76938ZM25.9698 8.10532C25.8295 7.33477 25.1148 6.83326 24.3404 6.83326C23.5103 6.83326 22.8203 7.27522 22.6455 8.10532H25.9698Z" fill="#DD1D21"/>
<path d="M32.6655 0.232422H29.7908V13.3355H32.6655V0.232422Z" fill="#DD1D21"/>
<path d="M37.2783 0.232422H34.3979V13.3355H37.2783V0.232422Z" fill="#DD1D21"/>
<path d="M60.6111 23.1064H55.9095L62.1481 35.0528H64.8995L67.8526 28.51L70.8097 35.0528H73.5532L79.7978 23.1064H75.1173L72.1103 29.5821L69.1111 23.1064H66.5961L63.593 29.5821L60.6111 23.1064Z" fill="#DD1D21"/>
<path d="M9.67212 28.1588L13.9318 17.4941H18.8908L11.3917 35.0534H7.85451L0.472656 17.4941H5.43168L9.67212 28.1588Z" fill="#DD1D21"/>
<path d="M24.9187 25.8354H18.2642V29.3269H24.9187V25.8354Z" fill="#DD1D21"/>
<path d="M98.812 23.1072H94.5768V35.0535H98.812V30.2362C98.812 28.1878 99.3961 26.6237 101.75 26.6237C102.401 26.6237 102.961 26.6948 103.545 27.0233V22.9478H102.722C101.074 22.9478 99.6766 23.6029 98.8619 25.0634H98.812V23.1072Z" fill="#DD1D21"/>
<path d="M27.412 17.4978H34.3923C38.162 17.4978 40.7655 19.2444 40.7655 23.2701C40.7655 27.2958 38.5328 29.225 34.5576 29.225H31.9714V35.0436H27.412V17.4996V17.4978ZM31.9714 25.551H32.7418C34.3923 25.551 36.0197 25.551 36.0197 23.4084C36.0197 21.2659 34.5075 21.1756 32.7418 21.1756H31.9714V25.551Z" fill="#DD1D21"/>
<path d="M55.9768 29.0866C55.9768 33.1394 52.6279 35.4433 48.7871 35.4433C44.9463 35.4433 41.5993 33.1586 41.5993 29.0866C41.5993 25.0149 44.9483 22.709 48.7871 22.709C52.6259 22.709 55.9768 25.0129 55.9768 29.0866ZM46.0645 29.0866C46.0645 30.6008 47.0675 31.7634 48.7871 31.7634C50.5066 31.7634 51.5096 30.6028 51.5096 29.0866C51.5096 27.5707 50.5106 26.3889 48.7871 26.3889C47.0636 26.3889 46.0645 27.6225 46.0645 29.0866Z" fill="#DD1D21"/>
<path d="M92.815 29.7859H83.9075C83.9075 31.5056 84.8143 32.4375 86.561 32.4375C87.464 32.4375 88.1192 32.134 88.5822 31.3423H92.6535C91.9811 34.1594 89.3027 35.4409 86.5802 35.4409C82.6279 35.4409 79.6728 33.2043 79.6728 29.0844C79.6728 24.9646 82.3935 22.7068 86.2767 22.7068C90.417 22.7068 92.815 25.2663 92.815 29.342V29.7859ZM88.8858 27.3436C88.6763 26.2002 87.6311 25.4201 86.4899 25.4201C85.2582 25.4201 84.2303 26.106 83.9786 27.3436H88.8858Z" fill="#DD1D21"/>
<path d="M103.571 17.5554C98.7215 17.5554 94.7904 13.6238 94.7904 8.78153C94.7904 3.93919 98.7195 0 103.571 0C108.422 0 112.355 3.92957 112.355 8.78153C112.355 13.6335 108.422 17.5554 103.571 17.5554ZM106.382 9.16007L110.795 11.0009L106.067 7.43834L110.726 6.33345L104.803 6.22201L107.915 2.59601L103.066 5.9818L103.452 1.21826L101.521 6.81768L99.0327 2.73438L100.76 8.39912L96.3466 6.55636L101.067 10.1285L96.4216 11.2238L102.336 11.3391L99.219 14.9613L104.074 11.5697L103.679 16.3352L105.617 10.7396L108.107 14.8229L106.38 9.16007H106.382Z" fill="#DD1D21"/>
<path d="M62.1444 43.064H68.9487V44.509H63.7239V48.0542H68.7969V49.4992H63.7239V54.2879H68.9487V55.7328H62.1444V43.064Z" fill="#00854E"/>
<path d="M72.4605 55.7309H70.9483V49.2802H70.1259V47.8678H70.9483V44.8606H72.4605V47.8678H73.9381V49.2802H72.4605V55.7309Z" fill="#00854E"/>
<path d="M82.1371 55.7307H80.6247V54.5047H80.5902C79.9848 55.3945 79.0452 55.9997 77.9192 55.9997C75.5173 55.9997 74.1567 54.0013 74.1567 51.7492C74.1567 49.4971 75.5844 47.6333 77.8691 47.6333C79.0279 47.6333 79.9695 48.2385 80.5902 49.1782H80.6247V47.8677H82.1371V55.7307ZM80.7092 51.7993C80.7092 50.2697 79.785 48.9764 78.1556 48.9764C76.526 48.9764 75.669 50.337 75.669 51.7993C75.669 53.2616 76.5606 54.6546 78.1556 54.6546C79.7504 54.6546 80.7092 53.3442 80.7092 51.7993Z" fill="#00854E"/>
<path d="M85.6158 48.9265H85.6485C86.1193 48.0867 87.0607 47.6333 88.0178 47.6333C90.2352 47.6333 90.806 49.1283 90.806 51.044V55.7326H89.2936V51.2305C89.2936 49.8873 89.1093 48.9784 87.5642 48.9784C85.6158 48.9784 85.6158 50.6924 85.6158 52.1202V55.7326H84.1035V47.8697H85.6158V48.9283V48.9265Z" fill="#00854E"/>
<path d="M100.586 51.8165C100.586 54.1858 98.7375 55.9997 96.3857 55.9997C94.0336 55.9997 92.1851 54.1858 92.1851 51.8165C92.1851 49.4472 94.0336 47.6333 96.3857 47.6333C98.7375 47.6333 100.586 49.4472 100.586 51.8165ZM93.6973 51.8165C93.6973 53.2943 94.8907 54.5548 96.3857 54.5548C97.8806 54.5548 99.0739 53.2943 99.0739 51.8165C99.0739 50.3388 97.8806 49.0784 96.3857 49.0784C94.8907 49.0784 93.6973 50.3215 93.6973 51.8165Z" fill="#00854E"/>
<path d="M103.544 55.7312H102.032V41.1484H103.544V55.7312Z" fill="#00854E"/>
</svg>
