<svg width="113" height="61" viewBox="0 0 113 61" fill="none" xmlns="http://www.w3.org/2000/svg">
<path d="M7.06942 4.49822C6.49873 4.01783 5.77621 3.70462 5.01335 3.70462C4.45226 3.70462 3.68939 4.04281 3.68939 4.69998C3.68939 5.38982 4.52527 5.65884 5.06523 5.83946L5.85308 6.07583C7.5133 6.57158 8.79113 7.40169 8.79113 9.33479C8.79113 10.5127 8.50674 11.7291 7.55943 12.5323C6.63324 13.324 5.38614 13.6564 4.17939 13.6564C2.68635 13.6564 1.20674 13.1529 0 12.2978L1.32972 9.8075C2.10218 10.48 3.01108 11.0335 4.07178 11.0335C4.80391 11.0335 5.57252 10.6741 5.57252 9.8344C5.57252 8.99467 4.35042 8.66032 3.69132 8.47201C1.74862 7.93013 0.476543 7.41708 0.476543 5.12274C0.476543 2.68811 2.1925 1.12012 4.57908 1.12012C5.78005 1.12012 7.24814 1.49867 8.305 2.09819L7.07326 4.50015L7.06942 4.49822Z" fill="#DD1D21"/>
<path d="M12.9022 0.232422V6.2642H12.9426C13.6074 5.37836 14.4126 4.97099 15.5405 4.97099C17.5908 4.97099 18.5766 6.31993 18.5766 8.38176V13.3355H15.7058V9.18304C15.7058 8.24341 15.5617 7.25957 14.4126 7.25957C13.2635 7.25957 12.9022 8.24341 12.9022 9.18304V13.3355H10.0333V0.232422H12.9022Z" fill="#DD1D21"/>
<path d="M28.6486 9.76938H22.5879C22.5879 10.9338 23.2067 11.5641 24.3904 11.5641C25.0034 11.5641 25.4415 11.3681 25.7547 10.832H28.518C28.0644 12.7382 26.2542 13.6106 24.4058 13.6106C21.7214 13.6106 19.7209 12.0925 19.7209 9.30245C19.7209 6.51235 21.56 4.9751 24.2041 4.9751C27.0075 4.9751 28.6467 6.71027 28.6467 9.4677V9.7713L28.6486 9.76938ZM25.9699 8.10532C25.8296 7.33477 25.1148 6.83326 24.3405 6.83326C23.5103 6.83326 22.8204 7.27522 22.6456 8.10532H25.9699Z" fill="#DD1D21"/>
<path d="M32.6655 0.232422H29.7908V13.3355H32.6655V0.232422Z" fill="#DD1D21"/>
<path d="M37.2784 0.232422H34.3979V13.3355H37.2784V0.232422Z" fill="#DD1D21"/>
<path d="M60.6112 23.1064H55.9095L62.1482 35.0528H64.8996L67.8526 28.51L70.8097 35.0528H73.5533L79.7978 23.1064H75.1174L72.1104 29.5821L69.1112 23.1064H66.5962L63.5931 29.5821L60.6112 23.1064Z" fill="#DD1D21"/>
<path d="M9.67212 28.1588L13.9318 17.4941H18.8908L11.3917 35.0534H7.85451L0.472656 17.4941H5.43168L9.67212 28.1588Z" fill="#DD1D21"/>
<path d="M24.9187 25.8354H18.2643V29.3269H24.9187V25.8354Z" fill="#DD1D21"/>
<path d="M98.812 23.1072H94.5768V35.0535H98.812V30.2362C98.812 28.1878 99.3961 26.6237 101.75 26.6237C102.401 26.6237 102.961 26.6948 103.545 27.0233V22.9478H102.722C101.074 22.9478 99.6766 23.6029 98.8619 25.0634H98.812V23.1072Z" fill="#DD1D21"/>
<path d="M27.412 17.4978H34.3923C38.162 17.4978 40.7655 19.2444 40.7655 23.2701C40.7655 27.2958 38.5328 29.225 34.5576 29.225H31.9714V35.0436H27.412V17.4996V17.4978ZM31.9714 25.551H32.7418C34.3923 25.551 36.0197 25.551 36.0197 23.4084C36.0197 21.2659 34.5075 21.1756 32.7418 21.1756H31.9714V25.551Z" fill="#DD1D21"/>
<path d="M55.9768 29.0866C55.9768 33.1394 52.6278 35.4433 48.787 35.4433C44.9462 35.4433 41.5992 33.1586 41.5992 29.0866C41.5992 25.0149 44.9482 22.709 48.787 22.709C52.6258 22.709 55.9768 25.0129 55.9768 29.0866ZM46.0645 29.0866C46.0645 30.6008 47.0675 31.7634 48.787 31.7634C50.5066 31.7634 51.5096 30.6028 51.5096 29.0866C51.5096 27.5707 50.5105 26.3889 48.787 26.3889C47.0635 26.3889 46.0645 27.6225 46.0645 29.0866Z" fill="#DD1D21"/>
<path d="M92.815 29.7859H83.9075C83.9075 31.5056 84.8143 32.4375 86.5609 32.4375C87.4639 32.4375 88.1191 32.134 88.5822 31.3423H92.6534C91.9811 34.1594 89.3027 35.4409 86.5801 35.4409C82.6279 35.4409 79.6727 33.2043 79.6727 29.0844C79.6727 24.9646 82.3935 22.7068 86.2766 22.7068C90.417 22.7068 92.815 25.2663 92.815 29.342V29.7859ZM88.8857 27.3436C88.6762 26.2002 87.6311 25.4201 86.4898 25.4201C85.2582 25.4201 84.2302 26.106 83.9786 27.3436H88.8857Z" fill="#DD1D21"/>
<path d="M103.571 17.5554C98.7215 17.5554 94.7904 13.6238 94.7904 8.78153C94.7904 3.93919 98.7195 0 103.571 0C108.422 0 112.355 3.92957 112.355 8.78153C112.355 13.6335 108.422 17.5554 103.571 17.5554ZM106.382 9.16007L110.795 11.0009L106.067 7.43834L110.726 6.33345L104.803 6.22201L107.915 2.59601L103.066 5.9818L103.452 1.21826L101.521 6.81768L99.0327 2.73438L100.76 8.39912L96.3466 6.55636L101.067 10.1285L96.4216 11.2238L102.336 11.3391L99.219 14.9613L104.074 11.5697L103.679 16.3352L105.617 10.7396L108.107 14.8229L106.38 9.16007H106.382Z" fill="#DD1D21"/>
<path d="M63.5086 56H61.9276L58.5786 50.339H58.0686L57.3716 56H55.9606L57.5416 43.182H59.6326C60.9246 43.182 61.7236 43.403 62.3526 43.879C63.0836 44.457 63.5426 45.477 63.5426 46.548C63.5426 47.925 62.8626 49.166 61.7066 49.761C61.1796 50.05 60.7376 50.186 59.9896 50.254L63.5086 56ZM58.2046 49.183H59.0206C60.1766 49.183 60.8226 48.996 61.3156 48.52C61.8086 48.061 62.1146 47.296 62.1146 46.565C62.1146 45.205 61.2476 44.491 59.6156 44.491H58.7826L58.2046 49.183ZM72.3947 56H71.0347L71.1707 54.912C70.2187 55.864 69.5387 56.187 68.4847 56.187C66.3597 56.187 64.8807 54.64 64.8807 52.43C64.8807 49.88 66.5807 48.044 68.9607 48.044C70.2187 48.044 70.9837 48.435 71.8507 49.506L72.0037 48.231H73.3467L72.3947 56ZM69.0797 49.285C67.4817 49.285 66.2577 50.628 66.2577 52.345C66.2577 53.841 67.3117 54.963 68.7397 54.963C70.2867 54.963 71.6127 53.518 71.6127 51.818C71.6127 50.339 70.5587 49.285 69.0797 49.285ZM81.6057 50.492C80.7897 49.591 80.1097 49.217 79.1237 49.217C77.4917 49.217 76.3017 50.509 76.3017 52.311C76.3017 53.926 77.3897 55.014 79.0047 55.014C79.8037 55.014 80.3817 54.793 81.1467 54.13L80.9767 55.66C80.2287 56.085 79.5997 56.255 78.8007 56.255C76.5397 56.255 74.9247 54.64 74.9247 52.345C74.9247 49.846 76.6927 47.993 79.0727 47.993C80.1437 47.993 80.8577 48.265 81.7757 49.03L81.6057 50.492ZM84.9524 44.015C85.3944 44.015 85.7684 44.372 85.7684 44.831C85.7684 45.307 85.3774 45.698 84.9184 45.698C84.4764 45.698 84.1364 45.341 84.1364 44.882C84.1364 44.389 84.5104 44.015 84.9524 44.015ZM84.2214 56H82.8784L83.8474 48.231H85.1904L84.2214 56ZM89.0222 49.2C89.9742 48.316 90.5182 48.044 91.4362 48.044C92.8642 48.044 93.7822 48.928 93.7822 50.322C93.7822 50.645 93.7482 51.121 93.6632 51.682L93.1532 56H91.8102L92.3712 51.461C92.4052 51.104 92.4392 50.696 92.4392 50.526C92.4392 49.71 91.9632 49.285 91.0792 49.285C90.4842 49.285 89.9062 49.506 89.4812 49.914C89.0052 50.373 88.8352 50.798 88.6992 51.92L88.1892 56H86.8462L87.8152 48.231H89.1582L89.0222 49.2ZM103.192 56.119C102.988 57.836 102.75 58.567 102.155 59.264C101.458 60.097 100.37 60.539 99.0782 60.539C97.8542 60.539 96.7832 60.131 96.1032 59.383C95.5592 58.788 95.3892 58.227 95.3722 57.071H96.6472C96.6812 57.802 96.7832 58.125 97.0382 58.499C97.4292 59.009 98.1602 59.298 99.0272 59.298C99.8772 59.298 100.625 59.009 101.084 58.516C101.475 58.091 101.696 57.496 101.832 56.408L101.985 55.065C101.016 55.898 100.336 56.187 99.3332 56.187C97.2252 56.187 95.6272 54.555 95.6272 52.396C95.6272 49.931 97.4292 48.044 99.7922 48.044C100.982 48.044 101.73 48.435 102.682 49.523L102.835 48.231H104.178L103.192 56.119ZM99.9112 49.285C98.2622 49.285 97.0042 50.577 97.0042 52.328C97.0042 53.841 98.1092 54.963 99.6052 54.963C101.203 54.963 102.495 53.603 102.495 51.903C102.495 50.339 101.458 49.285 99.9112 49.285Z" fill="#DD1D21"/>
</svg>
