<svg width="113" height="57" viewBox="0 0 113 57" fill="none" xmlns="http://www.w3.org/2000/svg">
<path d="M7.06942 4.49822C6.49873 4.01783 5.77621 3.70462 5.01335 3.70462C4.45226 3.70462 3.68939 4.04281 3.68939 4.69998C3.68939 5.38982 4.52527 5.65884 5.06523 5.83946L5.85308 6.07583C7.5133 6.57158 8.79113 7.40169 8.79113 9.33479C8.79113 10.5127 8.50674 11.7291 7.55943 12.5323C6.63324 13.324 5.38614 13.6564 4.17939 13.6564C2.68635 13.6564 1.20674 13.1529 0 12.2978L1.32972 9.8075C2.10218 10.48 3.01108 11.0335 4.07178 11.0335C4.80391 11.0335 5.57252 10.6741 5.57252 9.8344C5.57252 8.99467 4.35042 8.66032 3.69132 8.47201C1.74862 7.93013 0.476543 7.41708 0.476543 5.12274C0.476543 2.68811 2.1925 1.12012 4.57908 1.12012C5.78005 1.12012 7.24814 1.49867 8.305 2.09819L7.07326 4.50015L7.06942 4.49822Z" fill="#DD1D21"/>
<path d="M12.9022 0.232422V6.2642H12.9426C13.6074 5.37836 14.4126 4.97099 15.5405 4.97099C17.5908 4.97099 18.5766 6.31993 18.5766 8.38176V13.3355H15.7058V9.18304C15.7058 8.24341 15.5617 7.25957 14.4126 7.25957C13.2635 7.25957 12.9022 8.24341 12.9022 9.18304V13.3355H10.0333V0.232422H12.9022Z" fill="#DD1D21"/>
<path d="M28.6486 9.76938H22.5879C22.5879 10.9338 23.2067 11.5641 24.3904 11.5641C25.0034 11.5641 25.4415 11.3681 25.7547 10.832H28.518C28.0644 12.7382 26.2542 13.6106 24.4058 13.6106C21.7214 13.6106 19.7209 12.0925 19.7209 9.30245C19.7209 6.51235 21.56 4.9751 24.2041 4.9751C27.0075 4.9751 28.6467 6.71027 28.6467 9.4677V9.7713L28.6486 9.76938ZM25.9699 8.10532C25.8296 7.33477 25.1148 6.83326 24.3405 6.83326C23.5103 6.83326 22.8204 7.27522 22.6456 8.10532H25.9699Z" fill="#DD1D21"/>
<path d="M32.6655 0.232422H29.7908V13.3355H32.6655V0.232422Z" fill="#DD1D21"/>
<path d="M37.2784 0.232422H34.3979V13.3355H37.2784V0.232422Z" fill="#DD1D21"/>
<path d="M60.611 23.1064H55.9094L62.148 35.0528H64.8995L67.8525 28.51L70.8096 35.0528H73.5532L79.7977 23.1064H75.1173L72.1102 29.5821L69.1111 23.1064H66.596L63.593 29.5821L60.611 23.1064Z" fill="#DD1D21"/>
<path d="M9.67212 28.1588L13.9318 17.4941H18.8908L11.3917 35.0534H7.85451L0.472656 17.4941H5.43168L9.67212 28.1588Z" fill="#DD1D21"/>
<path d="M24.9187 25.8354H18.2643V29.3269H24.9187V25.8354Z" fill="#DD1D21"/>
<path d="M98.812 23.1072H94.5768V35.0535H98.812V30.2362C98.812 28.1878 99.3961 26.6237 101.75 26.6237C102.401 26.6237 102.961 26.6948 103.545 27.0233V22.9478H102.722C101.074 22.9478 99.6766 23.6029 98.8619 25.0634H98.812V23.1072Z" fill="#DD1D21"/>
<path d="M27.412 17.4978H34.3923C38.162 17.4978 40.7655 19.2444 40.7655 23.2701C40.7655 27.2958 38.5328 29.225 34.5576 29.225H31.9714V35.0436H27.412V17.4996V17.4978ZM31.9714 25.551H32.7418C34.3923 25.551 36.0197 25.551 36.0197 23.4084C36.0197 21.2659 34.5075 21.1756 32.7418 21.1756H31.9714V25.551Z" fill="#DD1D21"/>
<path d="M55.9769 29.0866C55.9769 33.1394 52.6279 35.4433 48.7871 35.4433C44.9464 35.4433 41.5994 33.1586 41.5994 29.0866C41.5994 25.0149 44.9483 22.709 48.7871 22.709C52.626 22.709 55.9769 25.0129 55.9769 29.0866ZM46.0646 29.0866C46.0646 30.6008 47.0676 31.7634 48.7871 31.7634C50.5067 31.7634 51.5097 30.6028 51.5097 29.0866C51.5097 27.5707 50.5106 26.3889 48.7871 26.3889C47.0637 26.3889 46.0646 27.6225 46.0646 29.0866Z" fill="#DD1D21"/>
<path d="M92.815 29.7859H83.9075C83.9075 31.5056 84.8143 32.4375 86.5609 32.4375C87.4639 32.4375 88.1191 32.134 88.5822 31.3423H92.6534C91.9811 34.1594 89.3027 35.4409 86.5801 35.4409C82.6279 35.4409 79.6727 33.2043 79.6727 29.0844C79.6727 24.9646 82.3935 22.7068 86.2766 22.7068C90.417 22.7068 92.815 25.2663 92.815 29.342V29.7859ZM88.8857 27.3436C88.6762 26.2002 87.6311 25.4201 86.4898 25.4201C85.2582 25.4201 84.2302 26.106 83.9786 27.3436H88.8857Z" fill="#DD1D21"/>
<path d="M103.571 17.5554C98.7215 17.5554 94.7904 13.6238 94.7904 8.78153C94.7904 3.93919 98.7195 0 103.571 0C108.422 0 112.355 3.92957 112.355 8.78153C112.355 13.6335 108.422 17.5554 103.571 17.5554ZM106.382 9.16007L110.795 11.0009L106.067 7.43834L110.726 6.33345L104.803 6.22201L107.915 2.59601L103.066 5.9818L103.452 1.21826L101.521 6.81768L99.0327 2.73438L100.76 8.39912L96.3466 6.55636L101.067 10.1285L96.4216 11.2238L102.336 11.3391L99.219 14.9613L104.074 11.5697L103.679 16.3352L105.617 10.7396L108.107 14.8229L106.38 9.16007H106.382Z" fill="#DD1D21"/>
<path d="M61.5867 55.9999V43.1819H64.2217C66.2957 43.1819 67.7067 43.6239 68.9307 44.6609C70.3757 45.8509 71.1407 47.5849 71.1407 49.5909C71.1407 51.5969 70.3757 53.3139 68.8967 54.5209C67.6217 55.5749 66.2787 55.9999 64.2047 55.9999H61.5867ZM63.0317 54.6739H64.2897C65.8537 54.6739 66.9927 54.3169 67.9447 53.5009C69.0837 52.5659 69.6957 51.1549 69.6957 49.6079C69.6957 48.0269 69.0667 46.5989 67.9787 45.6809C67.0097 44.8819 65.8537 44.5079 64.2897 44.5079H63.0317V54.6739Z" fill="#366398"/>
<path d="M73.8644 44.0319C74.4084 44.0319 74.8504 44.4739 74.8504 45.0179C74.8504 45.5449 74.4084 45.9869 73.8644 45.9869C73.3204 45.9869 72.8784 45.5449 72.8784 45.0009C72.8784 44.4739 73.3204 44.0319 73.8644 44.0319ZM74.5444 48.0269V55.9999H73.1674V48.0269H74.5444Z" fill="#366398"/>
<path d="M84.1083 52.2939H77.8863C77.9713 53.9259 78.9914 54.9799 80.4193 54.9799C81.4904 54.9799 82.1194 54.5379 82.8843 53.3139L84.0403 53.9599C83.1563 55.5239 81.9833 56.2379 80.3683 56.2379C78.0563 56.2379 76.4583 54.5209 76.4583 52.0559C76.4583 49.5569 78.0224 47.8569 80.3174 47.8569C82.6124 47.8569 84.1083 49.5229 84.1083 52.0559V52.2939ZM77.9883 51.1379H82.6803C82.4254 49.8969 81.5074 49.0809 80.3344 49.0809C79.1784 49.0809 78.1754 49.9479 77.9883 51.1379Z" fill="#366398"/>
<path d="M90.3532 49.3019L89.2142 49.8969C88.9252 49.3529 88.5852 49.0979 88.1092 49.0979C87.5822 49.0979 87.1402 49.5059 87.1402 49.9819C87.1402 50.4409 87.4122 50.6959 88.4322 51.1209C89.3502 51.5119 89.5882 51.6139 89.9452 51.8859C90.5232 52.3109 90.8292 52.8889 90.8292 53.6369C90.8292 55.1159 89.6562 56.2379 88.1092 56.2379C86.7832 56.2379 85.8312 55.5409 85.3212 54.1979L86.5282 53.6879C86.9872 54.6569 87.3782 54.9799 88.1262 54.9799C88.8742 54.9799 89.4352 54.4359 89.4352 53.7389C89.4352 53.1269 89.1462 52.8379 88.1432 52.4129C86.3072 51.5969 85.8312 51.1379 85.8312 50.0839C85.8312 48.8089 86.8342 47.8569 88.1602 47.8569C89.1462 47.8569 89.8602 48.3159 90.3532 49.3019Z" fill="#366398"/>
<path d="M99.83 52.2939H93.608C93.693 53.9259 94.713 54.9799 96.141 54.9799C97.212 54.9799 97.841 54.5379 98.606 53.3139L99.762 53.9599C98.878 55.5239 97.705 56.2379 96.09 56.2379C93.778 56.2379 92.18 54.5209 92.18 52.0559C92.18 49.5569 93.744 47.8569 96.039 47.8569C98.334 47.8569 99.83 49.5229 99.83 52.0559V52.2939ZM93.71 51.1379H98.402C98.147 49.8969 97.229 49.0809 96.056 49.0809C94.9 49.0809 93.897 49.9479 93.71 51.1379Z" fill="#366398"/>
<path d="M103.099 41.9919V55.9999H101.722V41.9919H103.099Z" fill="#366398"/>
</svg>
