<svg width="39" height="36" viewBox="0 0 39 36" fill="none" xmlns="http://www.w3.org/2000/svg">
<path d="M16.8799 34.1661H7.31935L6.43335 27.08L0.63547 22.8632C0.383388 21.6232 0.255493 20.3609 0.255493 19.0949C0.255493 8.69653 8.69653 0.255493 19.0949 0.255493C29.4933 0.255493 37.9343 8.69468 37.9343 19.0949C37.9343 20.3609 37.8064 21.6232 37.5543 22.8632L31.7565 27.08L30.8705 34.1661H21.3099L20.7575 34.5664C20.2738 34.9186 19.6917 35.1077 19.0949 35.1077C18.4981 35.1077 17.9161 34.9186 17.4323 34.5664L16.8799 34.1661Z" stroke="white" stroke-width="0.511019" stroke-miterlimit="40"/>
<path d="M16.8799 34.1661H7.31935L6.43335 27.08L0.63547 22.8632C0.383388 21.6231 0.255493 20.3609 0.255493 19.0949C0.255493 8.69653 8.69653 0.255493 19.0949 0.255493C29.4933 0.255493 37.9343 8.69468 37.9343 19.0949C37.9343 20.3609 37.8064 21.6231 37.5543 22.8632L31.7565 27.08L30.8705 34.1661H21.3099L20.7575 34.5664C20.2738 34.9186 19.6917 35.1077 19.0949 35.1077C18.4981 35.1077 17.9161 34.9186 17.4323 34.5664L16.8799 34.1661Z" fill="#F8CD05"/>
<path d="M19.0949 0.255493C8.69653 0.255493 0.255493 8.69468 0.255493 19.0949C0.255493 20.3609 0.383388 21.6231 0.63547 22.8632L6.43335 27.08L7.31935 34.1661H16.8799L17.4323 34.5664C17.9161 34.9186 18.4981 35.1077 19.0949 35.1077C19.6917 35.1077 20.2738 34.9186 20.7575 34.5664L21.3099 34.1661H30.8705L31.7565 27.08L37.5543 22.8632C37.8064 21.6231 37.9343 20.3609 37.9343 19.0949C37.9343 8.69653 29.4933 0.255493 19.0949 0.255493ZM33.9418 15.8308C34.4015 16.8577 34.6369 17.9698 34.6369 19.0949C34.6369 19.7677 34.5535 20.4387 34.3829 21.0912L28.6592 25.2542L27.9567 30.8686H21.0078L19.979 31.6156C19.7214 31.8028 19.41 31.9048 19.0931 31.9048C18.7761 31.9048 18.4647 31.8047 18.2071 31.6156L17.1783 30.8686H10.2294L9.52692 25.2542L3.80317 21.0912C3.63636 20.4387 3.5511 19.7677 3.5511 19.0949C3.5511 17.9698 3.78835 16.8577 4.24617 15.8308L14.3795 26.0772L4.52791 13.9161C4.9153 12.3387 5.77349 10.9152 6.98756 9.83832L15.8197 25.08L7.99404 8.39255C9.00607 7.04503 10.4185 6.05338 12.0273 5.55478L17.4267 24.4739L13.4824 4.77443C14.6816 4.09789 16.0366 3.74201 17.4156 3.74201C17.7066 3.74201 17.9976 3.75869 18.2886 3.7902L19.0931 24.2756L19.8975 3.7902C20.1866 3.75869 20.4777 3.74201 20.7705 3.74201C22.1477 3.74201 23.5045 4.09789 24.7037 4.77443L20.7594 24.4739L26.1588 5.55478C27.7676 6.05338 29.18 7.04503 30.1939 8.39255L22.3683 25.08L31.1985 9.83832C32.4145 10.9171 33.2727 12.3387 33.6601 13.9161L23.8085 26.0772L33.9418 15.8308Z" fill="#DD1D21"/>
</svg>
