<svg width="125" height="40" viewBox="0 0 125 40" fill="none" xmlns="http://www.w3.org/2000/svg">
<path d="M7.83 4.98226C7.19791 4.45019 6.39766 4.10328 5.55273 4.10328C4.93127 4.10328 4.08633 4.47786 4.08633 5.20574C4.08633 5.96979 5.01213 6.26775 5.61018 6.46781L6.4828 6.72961C8.32164 7.2787 9.73695 8.19812 9.73695 10.3392C9.73695 11.6438 9.42196 12.991 8.37273 13.8807C7.34689 14.7575 5.96562 15.1257 4.62904 15.1257C2.97536 15.1257 1.33657 14.5681 0 13.621L1.47278 10.8628C2.32835 11.6077 3.33504 12.2206 4.50986 12.2206C5.32075 12.2206 6.17206 11.8226 6.17206 10.8926C6.17206 9.96248 4.81847 9.59215 4.08846 9.38359C1.93675 8.78341 0.527813 8.21515 0.527813 5.67397C0.527813 2.97741 2.42838 1.24072 5.07173 1.24072C6.40191 1.24072 8.02795 1.66 9.19851 2.32403L7.83425 4.98441L7.83 4.98226Z" fill="#DD1D21"/>
<path d="M14.2904 0.257568V6.93829H14.3351C15.0714 5.95715 15.9632 5.50595 17.2125 5.50595C19.4834 5.50595 20.5753 7.00002 20.5753 9.28367V14.7704H17.3956V10.1712C17.3956 9.13044 17.2359 8.04075 15.9632 8.04075C14.6905 8.04075 14.2904 9.13044 14.2904 10.1712V14.7704H11.1128V0.257568H14.2904Z" fill="#DD1D21"/>
<path d="M31.7307 10.8201H25.018C25.018 12.1098 25.7033 12.8079 27.0144 12.8079C27.6933 12.8079 28.1786 12.5908 28.5255 11.9971H31.586C31.0836 14.1083 29.0787 15.0746 27.0315 15.0746C24.0582 15.0746 21.8426 13.3932 21.8426 10.3029C21.8426 7.21265 23.8795 5.51001 26.808 5.51001C29.9131 5.51001 31.7286 7.43186 31.7286 10.486V10.8222L31.7307 10.8201ZM28.7638 8.97701C28.6084 8.12356 27.8167 7.56808 26.9591 7.56808C26.0397 7.56808 25.2755 8.05759 25.0818 8.97701H28.7638Z" fill="#DD1D21"/>
<path d="M36.1798 0.257568H32.9958V14.7704H36.1798V0.257568Z" fill="#DD1D21"/>
<path d="M41.2891 0.257568H38.0987V14.7704H41.2891V0.257568Z" fill="#DD1D21"/>
<path d="M67.1322 25.5928H61.9247L68.8346 38.8244H71.882L75.1527 31.5777L78.428 38.8244H81.4667L88.3831 25.5928H83.1991L79.8686 32.7651L76.5467 25.5928H73.7611L70.4349 32.7651L67.1322 25.5928Z" fill="#DD1D21"/>
<path d="M10.7128 31.1882L15.4307 19.3762H20.9233L12.6174 38.8246H8.69961L0.52356 19.3762H6.01612L10.7128 31.1882Z" fill="#DD1D21"/>
<path d="M27.5996 28.615H20.2293V32.4821H27.5996V28.615Z" fill="#DD1D21"/>
<path d="M109.443 25.5928H104.752V38.8244H109.443V33.4888C109.443 31.2201 110.09 29.4877 112.697 29.4877C113.419 29.4877 114.038 29.5664 114.685 29.9303V25.4163H113.774C111.948 25.4163 110.401 26.1419 109.498 27.7595H109.443V25.5928Z" fill="#DD1D21"/>
<path d="M30.3611 19.3804H38.0924C42.2676 19.3804 45.1513 21.3149 45.1513 25.7736C45.1513 30.2326 42.6784 32.3693 38.2754 32.3693H35.4111V38.8138H30.3611V19.3824V19.3804ZM35.4111 28.3H36.2644C38.0924 28.3 39.8949 28.3 39.8949 25.9269C39.8949 23.5538 38.22 23.4538 36.2644 23.4538H35.4111V28.3Z" fill="#DD1D21"/>
<path d="M61.9993 32.2159C61.9993 36.7046 58.29 39.2565 54.036 39.2565C49.782 39.2565 46.0749 36.7259 46.0749 32.2159C46.0749 27.7061 49.7842 25.1521 54.036 25.1521C58.2878 25.1521 61.9993 27.7039 61.9993 32.2159ZM51.0206 32.2159C51.0206 33.893 52.1315 35.1806 54.036 35.1806C55.9406 35.1806 57.0515 33.8952 57.0515 32.2159C57.0515 30.5368 55.9449 29.2279 54.036 29.2279C52.1271 29.2279 51.0206 30.5943 51.0206 32.2159Z" fill="#DD1D21"/>
<path d="M102.801 32.9906H92.9349C92.9349 34.8954 93.9393 35.9275 95.8738 35.9275C96.874 35.9275 97.5997 35.5914 98.1126 34.7144H102.622C101.877 37.8346 98.9106 39.2541 95.8951 39.2541C91.5177 39.2541 88.2446 36.7768 88.2446 32.2137C88.2446 27.6506 91.258 25.1499 95.5589 25.1499C100.145 25.1499 102.801 27.9848 102.801 32.499V32.9906ZM98.4488 30.2855C98.2168 29.0192 97.0591 28.1552 95.7951 28.1552C94.4309 28.1552 93.2924 28.9148 93.0137 30.2855H98.4488Z" fill="#DD1D21"/>
<path d="M114.714 19.4442C109.343 19.4442 104.989 15.0896 104.989 9.72631C104.989 4.363 109.34 0 114.714 0C120.087 0 124.443 4.35235 124.443 9.72631C124.443 15.1003 120.087 19.4442 114.714 19.4442ZM117.827 10.1456L122.715 12.1845L117.478 8.23862L122.639 7.01485L116.078 6.89142L119.525 2.87531L114.154 6.62536L114.582 1.34933L112.443 7.55118L109.687 3.02856L111.6 9.30276L106.712 7.26175L111.941 11.2182L106.795 12.4314L113.345 12.5591L109.894 16.5709L115.271 12.8145L114.833 18.0926L116.98 11.895L119.738 16.4177L117.825 10.1456H117.827Z" fill="#DD1D21"/>
</svg>
