<svg width="42" height="56" viewBox="0 0 42 56" fill="none" xmlns="http://www.w3.org/2000/svg">
<path d="M0 5.13773V6.19352L20.6176 2.68522L41.2353 6.19352V5.13773L20.6176 1.32178L0 5.13773Z" fill="white"/>
<path d="M41.2353 6.1856L20.6176 2.67725L0 6.1856L0.0498794 9.644C0.0498794 9.644 10.4086 5.14641 20.6176 5.14641C30.8267 5.14641 41.1854 9.644 41.1854 9.644L41.2353 6.1856Z" fill="#EC1C24"/>
<path d="M20.6178 5.01294C7.73177 5.01294 0.0500488 9.56878 0.0500488 9.56878L0.208009 19.9441C0.208009 24.7078 1.76263 44.9679 20.6178 56C39.4813 44.9679 41.0276 24.7161 41.0276 19.9441L41.1856 9.56878C41.1856 9.56878 33.5038 5.01294 20.6178 5.01294Z" fill="#010101"/>
<path d="M40.4039 10.3088C40.4039 10.3088 33.7032 6.04395 20.6093 6.04395C7.51543 6.04395 0.814697 10.3088 0.814697 10.3088L1.02254 19.9359C1.02254 23.7103 1.74582 43.9122 20.6093 54.8861C39.4728 43.9205 40.1961 23.7103 40.1961 19.9359L40.4039 10.3088Z" fill="#FFF100"/>
<path d="M20.1519 7.64018C20.1519 7.64018 20.1269 7.86463 20.0771 7.98933C20.0272 8.10572 19.8942 8.18883 19.9025 8.27197C19.9108 8.35511 19.9939 8.44656 20.1269 8.51307C20.26 8.57958 20.3098 8.62946 20.4429 8.66271C20.5676 8.69597 20.7172 8.78742 20.7671 8.67934C20.8087 8.57958 20.7421 8.44656 20.6673 8.32186C20.5343 8.10575 20.4761 8.05582 20.2849 7.76485C20.2433 7.69834 20.2101 7.63185 20.1519 7.62354" fill="#231F20"/>
<path d="M19.1793 30.5607C19.1793 30.5607 19.4952 30.7187 19.6532 30.8101C19.9857 31.0096 20.1353 31.126 20.4346 31.3505C20.6674 31.5251 20.7838 31.6165 21.0166 31.8244C21.3076 32.0738 21.4572 32.2816 21.5403 32.2317C21.6484 32.0987 21.3574 31.6997 21.0997 31.4918C20.842 31.284 20.5843 31.1094 20.3764 30.9764C20.1187 30.8018 20.0938 30.7602 19.703 30.5025C19.2874 30.2198 18.9216 29.8707 18.9216 29.8707L18.5142 29.5464L17.8741 29.0061L17.1674 28.3493L16.627 27.7507C16.627 27.7507 16.2113 27.2436 16.1448 27.1438C16.0783 27.0441 15.8788 26.7281 15.7208 26.4621C15.5712 26.221 15.2968 25.8469 15.2636 25.822C15.1139 25.6391 14.7648 25.7139 14.3657 25.4728C13.8752 25.1818 13.7588 24.9241 13.7588 24.9241C13.7588 24.9241 13.7422 24.8825 13.7256 24.8659C13.709 24.841 13.6674 24.816 13.6674 24.816L13.4097 24.6331L13.26 24.5334C13.26 24.5334 13.1519 24.4419 13.0106 24.3837C12.8693 24.3255 12.5534 24.1426 12.5534 24.1426L11.9964 23.7851C11.9964 23.7851 11.7802 23.6106 11.7054 23.5524C11.6306 23.4942 11.4892 23.4193 11.4892 23.4193C11.4892 23.4193 11.3978 23.3778 11.3728 23.3695C11.3479 23.3695 11.2315 23.3611 11.2315 23.3611C11.2315 23.3611 11.1234 23.3362 11.0154 23.4609C10.9073 23.5856 10.9322 23.5191 11.1068 24.2507C11.1733 24.5417 11.1733 25.5476 11.2481 25.8552C11.3479 26.2543 11.6223 26.7614 11.6472 26.8196C11.6721 26.8778 11.6971 27.1023 11.6971 27.1023C11.6971 27.1023 11.6888 27.2852 11.6971 27.3932C11.7802 27.917 12.5451 27.5678 12.7113 28.2911C12.8776 28.9977 12.6116 29.7044 12.6116 29.7044C12.6116 29.7044 12.4453 30.0536 12.2125 30.1118C11.9797 30.17 11.6223 29.6545 11.3645 29.2388C11.1068 28.8315 10.899 28.2994 10.8325 28.1248C10.766 27.9585 10.7327 27.917 10.6496 27.7923C10.5332 27.6094 10.4417 27.6426 10.317 27.3517C10.1923 27.0607 10.3004 26.9443 10.2422 26.6949C10.2089 26.5536 10.1757 26.5369 10.1341 26.3374C10.0926 26.1379 10.0344 25.506 10.0344 25.506L9.95123 24.9158C9.95123 24.9158 9.92628 24.6497 9.88472 24.4752C9.7517 23.8849 9.71013 23.3113 9.71013 23.3113L9.68519 23.0785V22.8374C9.68519 22.8374 9.66856 22.721 9.6935 22.5963C9.71845 22.4799 9.78495 22.3801 9.78495 22.3801C9.78495 22.3801 9.90134 22.1806 9.92628 22.1307C9.94291 22.0809 10.1923 21.7982 10.1923 21.7982C10.1923 21.7982 10.317 21.6901 10.5249 21.5654C10.7327 21.4407 10.9239 21.449 10.9239 21.449C10.9239 21.449 10.9738 21.449 11.3479 21.4906C11.7137 21.5405 12.4785 21.74 12.6698 21.7899C12.861 21.8398 13.0854 21.9229 13.2351 21.9977C13.6591 22.2305 13.7838 22.1307 13.4512 21.8647C13.2268 21.6901 13.1603 21.607 12.9774 21.4407C12.8277 21.2994 12.703 21.2079 12.5866 21.0749C12.4702 20.9419 12.146 20.4597 12.146 20.4597L11.9382 20.1604C11.9382 20.1604 11.8301 20.0357 11.8135 20.0274C11.7968 20.0191 11.7386 19.9775 11.7386 19.9775C11.7386 19.9775 11.6056 19.9858 11.4643 19.9609C11.323 19.936 11.2565 20.1272 11.2565 20.1272C11.2565 20.1272 10.9489 20.6925 10.6413 21.0417C10.1424 21.607 9.78495 21.9894 9.60206 22.2887C9.34433 22.7044 9.40253 23.1616 9.26951 23.3695C9.19469 23.4942 9.15312 23.5108 9.10324 23.6189C8.97022 23.9431 9.4441 24.126 9.33602 24.4918C9.16144 25.0654 7.81461 25.6308 7.64003 25.5393C7.45713 25.4395 7.60678 24.6664 7.66498 24.417C7.73149 24.1676 7.91438 23.7935 7.931 23.7768C7.94763 23.7602 7.99751 23.6687 8.00583 23.5939C8.02245 23.5191 8.02245 23.3528 8.03077 23.2614C8.03908 23.1699 8.07234 23.0203 8.07234 23.0203C8.07234 23.0203 8.07234 22.987 8.19705 22.7293C8.31344 22.4716 8.75407 21.8647 9.06999 21.2911C9.27783 20.917 9.36096 20.6842 9.5688 20.3101C9.76001 19.9609 10.0842 19.4371 10.0842 19.4371C10.0842 19.4371 10.2256 19.1711 10.2921 19.063C10.3586 18.9633 10.4916 18.7637 10.6246 18.5725C10.7576 18.3813 10.7909 18.24 10.9572 18.082C11.0985 17.949 11.1899 17.8825 11.3728 17.8243C11.6472 17.7329 11.8384 17.7827 12.1128 17.8576C12.4037 17.9407 12.6033 18.0737 12.7945 18.2317C12.9857 18.3896 13.127 18.5642 13.127 18.5642L13.2185 18.6972L13.2767 18.7305L13.4512 18.8386L13.8503 19.1046C13.8503 19.1046 14.8063 19.7531 14.8562 19.7863C14.9061 19.8196 15.0807 19.9609 15.1139 19.9692C15.1472 19.9775 15.4049 19.7032 15.9037 19.3623C16.4857 18.9633 16.6852 18.9965 16.8764 18.8885C17.0676 18.7804 17.1425 18.6972 17.2921 18.5476C17.5166 18.3231 17.5166 18.2067 17.7743 17.8908C18.032 17.5749 18.2731 17.4003 18.2731 17.4003C18.2731 17.4003 18.3064 17.3671 18.7636 16.8516C19.2208 16.3362 19.4204 15.9454 19.4204 15.9454L19.6698 15.4466C19.6698 15.4466 20.0356 14.6652 20.152 14.3576C20.2684 14.05 20.2684 13.9419 20.2684 13.9419C20.2684 13.9419 20.285 13.8587 20.1935 13.7091C20.1021 13.5511 20.0106 13.626 19.8361 13.6592C19.5035 13.7257 19.304 13.6426 18.9631 13.5844C18.6555 13.5345 18.4976 13.4431 18.19 13.3849C17.8824 13.335 17.6995 13.2851 17.3836 13.31C17.3337 13.31 17.2422 13.335 17.1923 13.3516C17.0178 13.4098 16.9679 13.4264 16.8349 13.5013C16.6852 13.5761 16.5855 13.5927 16.4192 13.601C16.3028 13.601 16.228 13.601 16.1199 13.5678C16.0451 13.5428 16.0035 13.5179 15.9453 13.468C15.9121 13.4348 15.8871 13.4181 15.8622 13.3766C15.8622 13.3433 15.8455 13.3433 15.8788 13.2934C15.9121 13.2435 15.9536 13.2269 15.9536 13.2269L16.0949 13.1937C16.0949 13.1937 16.2945 13.1438 16.3111 13.1355C16.3277 13.1272 16.5189 13.069 16.6104 13.044C16.6935 13.0191 16.785 12.9692 16.785 12.9692C16.785 12.9692 16.8349 12.8861 16.8182 12.8362C16.7933 12.7863 16.6769 12.778 16.6769 12.778C16.6769 12.778 16.5189 12.8362 16.5023 12.8445C16.4857 12.8445 16.228 12.9276 16.228 12.9276C16.228 12.9276 16.0284 12.9692 15.8705 13.0108C15.7125 13.044 15.4881 13.0606 15.4881 13.0606L15.4216 13.044C15.4216 13.044 15.3467 12.9941 15.3301 12.9443C15.3218 12.8944 15.3135 12.8611 15.3052 12.8029C15.2719 12.6034 15.2303 12.487 15.2802 12.2875C15.2968 12.2043 15.3218 12.1628 15.355 12.088C15.3883 12.0214 15.4049 11.9882 15.4382 11.93L15.5629 11.7305L15.7957 11.3896C15.8788 11.3065 15.9287 11.2649 16.0284 11.215C16.1781 11.1319 16.2612 11.107 16.4524 11.0903C16.6353 11.0737 16.6603 11.0737 16.918 11.0155C17.1757 10.9573 17.3586 10.8575 17.3586 10.8575C17.3586 10.8575 17.9738 10.6331 18.3562 10.4419C18.7553 10.2507 18.9299 10.0428 19.3372 9.87655C19.5118 9.81004 19.6116 9.77679 19.7862 9.73522C19.8111 9.71859 19.8194 9.71028 19.8277 9.68534C19.8444 9.61883 19.7446 9.58557 19.6781 9.59389C19.6199 9.59389 19.4786 9.6604 19.4453 9.59389C19.4204 9.53569 19.5783 9.51075 19.5783 9.51075C19.5783 9.51075 19.6532 9.4775 19.6532 9.43593C19.6532 9.37773 19.5451 9.41099 19.5035 9.41099C19.2624 9.38605 19.2458 9.34448 19.0795 9.30291C18.88 9.25303 18.7802 9.19484 18.5724 9.18652C18.3895 9.18652 18.2232 9.21978 18.1151 9.24472C18.0071 9.26966 17.9988 9.16158 18.0403 9.14495C18.3562 8.99531 18.3646 8.987 18.589 8.97868C18.7137 8.97868 18.88 9.00362 18.8966 9.01194C18.9132 9.02025 19.1543 9.01194 19.2208 8.94543C19.2874 8.87892 19.0213 8.88723 18.8966 8.83735C18.7802 8.79579 18.6056 8.77916 18.614 8.70434C18.614 8.62951 18.7054 8.67108 18.7636 8.65445C18.8384 8.63783 18.88 8.63783 18.9631 8.62951C19.1045 8.61289 19.1128 8.59626 19.3206 8.57963C19.5285 8.56301 19.8194 8.64614 19.8194 8.64614C19.8194 8.64614 20.127 8.78747 20.2767 8.85398C20.4263 8.9288 20.6092 8.96206 20.6092 8.96206C20.6092 8.96206 20.8254 8.99531 20.9916 8.88723C21.1579 8.78747 21.0665 8.72096 21.0083 8.6212C20.9501 8.52975 20.8752 8.40505 20.9833 8.16396C21.0748 7.95612 21.1247 7.7067 21.1496 7.68176C21.1828 7.65682 21.3159 7.8397 21.399 7.92284C21.6983 8.2055 22.0973 8.34685 22.4798 8.93712C22.513 8.97868 22.6543 8.91218 23.0867 8.97868C23.5273 9.04519 23.9014 9.51907 24.0011 9.62714C24.1009 9.73522 24.2256 9.73522 24.2256 9.73522L24.4335 9.76016L25.1983 9.77679C25.1983 9.77679 25.5475 9.71859 25.747 9.79341C25.8883 9.84329 26.3539 10.1592 26.1377 10.2756C25.9881 10.3587 25.8468 10.1758 25.7137 10.1675C25.5558 10.1592 25.4893 10.1842 25.3479 10.2257C25.0487 10.3005 24.4168 10.4918 24.6496 10.5749C24.6662 10.5749 24.6995 10.5915 24.6995 10.5915L24.8159 10.6081C24.8159 10.6081 25.0985 10.6747 25.2648 10.7412C25.5225 10.8409 25.6389 10.9573 25.88 11.0903C26.013 11.1652 26.0712 11.2483 26.2209 11.2899C26.3539 11.3314 26.437 11.2899 26.5784 11.3148C26.7612 11.348 26.861 11.3813 27.0273 11.4644C27.2684 11.5808 27.3598 11.7305 27.5843 11.8884C27.6924 11.9716 27.7838 11.9799 27.867 12.088C27.8836 12.1129 27.9002 12.1212 27.9085 12.1545C27.9418 12.2542 27.7506 12.196 27.6425 12.1794C27.5344 12.1628 27.4845 12.1046 27.3848 12.0547C27.2268 11.9799 27.1603 11.9051 26.994 11.8718C26.8693 11.8469 26.8028 11.8718 26.6781 11.8718C26.5617 11.8718 26.4952 11.8967 26.3705 11.8967C26.1627 11.8967 26.0463 11.8801 25.8468 11.8385C25.6223 11.7887 25.5059 11.7055 25.2814 11.6557C25.032 11.6058 24.5831 11.3896 24.6247 11.6058C24.6496 11.7138 24.8824 11.797 24.8824 11.797C24.8824 11.797 25.0403 11.8884 25.1983 11.9549C25.3563 12.0214 25.4394 12.1295 25.4394 12.1295L25.5475 12.2127C25.5475 12.2127 25.6555 12.3623 25.8052 12.5369C25.9465 12.7032 26.1959 12.7032 26.1959 12.7032C26.1959 12.7032 26.3456 12.7032 26.6781 12.7697C27.0023 12.8362 27.3432 13.0357 27.3432 13.0357C27.3432 13.0357 27.6009 13.2103 27.7423 13.3849C27.8919 13.5595 27.8088 13.6509 27.7838 13.6675C27.7672 13.6842 27.7672 13.6758 27.7506 13.6842C27.7339 13.6925 27.551 13.468 27.551 13.468L27.418 13.3599C27.418 13.3599 27.285 13.2685 27.127 13.2186C26.9691 13.1687 26.9109 13.202 26.9109 13.202C26.9109 13.202 26.5534 13.3017 26.2541 13.2934C25.9465 13.2851 25.7886 13.1604 25.7886 13.1604L25.5974 13.0274C25.5974 13.0274 25.3064 12.753 25.2981 12.8861C25.2981 12.9775 25.4228 13.069 25.4228 13.069C25.4228 13.069 25.5142 13.1604 25.5807 13.2186C25.6971 13.335 25.747 13.3932 25.88 13.5096C26.013 13.626 26.0962 13.626 26.0962 13.626C26.0962 13.626 26.171 13.6426 26.1959 13.6509C26.2209 13.6509 26.2708 13.6675 26.2708 13.6675C26.2708 13.6675 26.3123 13.6842 26.5285 13.7673C26.7363 13.8504 26.9608 14.0333 26.9608 14.0333C26.9608 14.0333 26.9857 14.05 27.0107 14.0583C27.0439 14.0583 27.1021 14.0915 27.1187 14.0998C27.1354 14.1082 27.1936 14.0998 27.3099 14.1248C27.4346 14.1414 27.3848 14.2162 27.3848 14.2162L27.3598 14.2495L27.2601 14.316C27.2601 14.316 27.127 14.3492 27.0439 14.3576C26.9525 14.3576 26.8278 14.316 26.8278 14.316L26.5534 14.2162C26.5534 14.2162 26.2791 14.1414 26.2209 14.1331C26.1627 14.1248 25.9133 14.0749 25.88 14.0666C25.8384 14.0666 25.7137 14.0167 25.6805 14.0001C25.6472 13.9834 25.589 13.9668 25.4394 13.9003C25.2897 13.8255 25.2316 13.7424 25.0487 13.6842C24.8658 13.626 24.7577 13.6177 24.6164 13.7091C24.3836 13.8754 24.9738 13.9003 25.2731 14.05C25.7137 14.2661 25.9548 14.4241 26.0629 14.6568C26.171 14.8896 26.2708 14.9728 26.2708 14.9728C26.2708 14.9728 26.5784 15.1307 26.7197 15.2887C26.7945 15.3801 26.8028 15.4466 26.8776 15.5381C27.0439 15.7376 27.3765 15.7293 27.443 15.8956C27.5012 16.0535 27.1769 15.9787 27.0023 15.9621C26.6947 15.9288 26.6199 15.6545 26.3373 15.5381C26.1793 15.4716 26.0712 15.4716 25.905 15.4134C25.6057 15.3136 25.4643 15.1806 25.1567 15.0892C24.9738 15.031 24.6413 14.7899 24.6829 14.9811C24.6912 15.0226 24.7161 15.0642 24.7327 15.0892C24.7494 15.1141 24.8242 15.2139 24.8242 15.2139C24.8242 15.2139 24.924 15.3469 24.9738 15.3884C25.0154 15.4217 25.2149 15.5713 25.4976 15.721C25.7719 15.8706 26.013 16.1616 26.013 16.1616C26.013 16.1616 26.0962 16.278 26.1377 16.3611C26.1793 16.4526 26.1544 16.4775 26.2126 16.6105C26.2791 16.7436 26.304 16.7602 26.3871 16.8433C26.5867 17.0428 26.8028 17.0013 27.0605 17.1093C27.127 17.1343 27.1354 17.1509 27.2102 17.2341C27.285 17.3172 27.1936 17.3504 27.1936 17.3504C27.1936 17.3504 26.9026 17.4253 26.7197 17.4086C26.4786 17.392 26.3705 17.3172 26.1377 17.2008C25.8966 17.0844 25.7719 16.8766 25.7553 16.8599C25.7304 16.8433 25.6722 16.7851 25.6306 16.7519C25.589 16.7186 25.4726 16.6937 25.3646 16.6687C25.2565 16.6438 25.1983 16.6355 25.0985 16.6022C24.9572 16.5607 24.8076 16.5025 24.7411 16.4775C24.6745 16.4526 24.5166 16.4276 24.4085 16.4941C24.184 16.6272 24.7577 16.7186 24.9323 16.9098C25.0237 17.0096 25.057 17.0761 25.1484 17.1759C25.2149 17.2507 25.2399 17.3089 25.323 17.3671C25.3812 17.4086 25.481 17.4502 25.481 17.4502C25.481 17.4502 25.6223 17.5084 25.8218 17.6248C26.0213 17.7329 26.2624 18.0488 26.2624 18.0488L26.4038 18.2649L26.4869 18.3896L26.5118 18.4478L26.5451 18.5227C26.5451 18.5227 26.6449 18.6557 26.7197 18.6972C26.7945 18.7388 26.7862 18.7804 26.7862 18.7804C26.7862 18.7804 26.7779 18.8053 26.7197 18.8386C26.6698 18.8718 26.6365 18.8386 26.5617 18.8219C26.4869 18.797 26.437 18.7305 26.3705 18.6723C26.304 18.6224 26.2292 18.4811 26.1045 18.4063C25.9964 18.3398 25.8551 18.3148 25.7969 18.2982C25.747 18.2816 25.6057 18.1984 25.5558 18.1735C25.5059 18.1485 25.3646 18.0903 25.3646 18.0903C25.3646 18.0903 25.0985 17.9407 24.9489 17.8991C24.7992 17.8576 24.899 17.949 24.899 17.949C24.899 17.949 25.032 18.1569 25.1567 18.24C25.323 18.3481 25.5558 18.4478 25.481 18.531C25.4311 18.5892 25.3646 18.5725 25.2814 18.5559C25.1567 18.5393 25.0071 18.3896 25.0071 18.3896C25.0071 18.3896 24.9406 18.3481 24.6662 18.2566C24.3919 18.1652 24.4916 18.3231 24.5582 18.398C24.6247 18.4811 24.7078 18.5227 24.7078 18.5227L24.899 18.6058L24.9821 18.6307C24.9821 18.6307 25.057 18.6474 25.3064 18.7056C25.5558 18.7637 25.6971 18.8801 25.6971 18.8801C25.6971 18.8801 25.8301 19.0048 26.0213 19.1462C26.2126 19.2875 26.3955 19.3208 26.5035 19.3374C26.6033 19.354 26.6033 19.4205 26.6033 19.4205C26.6033 19.4205 26.6199 19.487 26.6116 19.512C26.6116 19.5369 26.5867 19.5535 26.5617 19.5535C26.5368 19.5535 26.5285 19.5535 26.5035 19.5785C26.4786 19.5951 26.3705 19.6117 26.3705 19.6117C26.3705 19.6117 26.0879 19.6117 25.8717 19.5452C25.6555 19.4953 25.4643 19.3374 25.4394 19.3291C25.4228 19.3208 25.2149 19.2127 25.0736 19.1628C24.9323 19.1212 24.7161 19.1379 24.6912 19.1462C24.6662 19.1545 24.5914 19.1711 24.4667 19.2044C24.3337 19.2376 24.5 19.2875 24.5 19.2875H24.5914L24.8159 19.3124C24.8159 19.3124 25.0403 19.3374 25.2399 19.4122C25.4394 19.487 25.5641 19.6284 25.6888 19.7531C25.8218 19.8861 25.9631 19.9692 25.9631 19.9692L26.0629 20.0357L26.1128 20.0773L26.1294 20.1105C26.1294 20.1105 26.1294 20.1272 26.1128 20.1521C26.1128 20.1771 26.0712 20.1937 26.0712 20.1937C26.0712 20.1937 26.0213 20.1854 25.9964 20.1854C25.9715 20.1854 25.8301 20.1105 25.7221 20.0607C25.6057 20.0108 25.5475 19.9609 25.4311 19.936C25.3313 19.911 25.19 19.9027 25.1567 19.911C25.1235 19.911 24.899 19.9526 24.7244 19.9609C24.5498 19.9692 24.4002 19.9775 24.1924 19.9526C23.8931 19.9193 23.5023 19.6866 23.4525 19.7531C23.3527 19.8861 23.6603 19.9276 23.8099 20.0191C24.0178 20.1355 24.3753 20.2436 24.3753 20.2436C24.3753 20.2436 24.633 20.3018 24.7909 20.3766C25.1235 20.5345 25.2316 20.759 25.4976 21.0084C25.6472 21.1414 25.7636 21.1996 25.9631 21.2329C26.1377 21.2578 26.1294 21.2329 26.4038 21.183C26.6781 21.1331 26.8444 20.8671 26.9192 20.9668C26.9358 20.9835 26.9275 21.0001 26.9192 21.0333C26.9192 21.0583 26.8943 21.1082 26.8943 21.1082C26.8943 21.1082 26.861 21.1497 26.8111 21.1996C26.7613 21.2495 26.57 21.3493 26.4786 21.3908C26.3788 21.4324 26.1377 21.4989 25.8384 21.4906C25.5392 21.4823 25.1068 21.2495 25.1068 21.2495L24.7992 21.1165C24.7992 21.1165 24.6579 21.05 24.5582 21.0167C24.3004 20.9253 24.1425 20.9336 23.8764 20.8588C23.7102 20.8172 23.6104 20.7673 23.4608 20.7424C23.3111 20.7091 23.3943 20.7673 23.4109 20.7923C23.4774 20.8837 23.5688 20.917 23.6852 20.9668C23.8432 21.0417 23.9513 21.025 24.1092 21.0915C24.2838 21.1664 24.4418 21.2661 24.5415 21.3243C24.6413 21.3908 24.7078 21.4573 24.8076 21.5571L25.1318 21.8315C25.1318 21.8315 25.2066 21.898 25.2149 21.9229C25.2149 21.9478 25.2565 22.0144 25.2399 22.1224C25.2232 22.2305 25.1318 22.1557 25.1318 22.1557L25.0487 22.1058L24.9655 22.0227L24.8242 21.9146C24.8242 21.9146 24.7078 21.8065 24.5083 21.7067C24.3087 21.607 24.0677 21.5737 24.0677 21.5737C24.0677 21.5737 23.8515 21.5405 23.8598 21.607C23.8681 21.6735 23.918 21.6818 24.0843 21.7234C24.2506 21.7649 24.3669 21.8564 24.3669 21.8564C24.3669 21.8564 24.5415 21.9894 24.6662 22.1307C24.7909 22.2721 24.8242 22.4134 24.8242 22.4134C24.8242 22.4134 24.8907 22.5298 25.0487 22.6877C25.2066 22.8457 25.2981 22.7875 25.2897 22.8706C25.2814 22.9455 25.2066 22.9621 25.2066 22.9621C25.2066 22.9621 25.165 22.9621 25.1484 22.9621C25.1318 22.9621 25.0902 22.9372 25.0487 22.9205C25.0071 22.9039 24.8325 22.7875 24.8325 22.7875C24.8325 22.7875 24.5665 22.5714 24.5332 22.5464C24.5 22.5215 24.2506 22.3386 24.2506 22.3386C24.2506 22.3386 24.1009 22.2471 23.9928 22.1889C23.8848 22.1391 23.7434 22.0809 23.6603 22.0559C23.5772 22.031 23.4358 22.0227 23.4358 22.0227C23.4358 22.0227 23.2612 21.9977 23.1532 21.9562C22.9786 21.8896 22.7791 21.7067 22.7624 21.6984C22.7375 21.6901 22.5795 21.6319 22.5463 21.6402C22.513 21.6402 22.4465 21.9478 22.4299 22.1141C22.3551 22.8374 22.5546 23.3196 22.8456 23.9847C23.2779 24.949 24.4833 26.1545 24.4833 26.1545C24.4833 26.1545 24.7826 26.3291 24.9156 26.4289C25.2731 26.7115 25.8717 27.1106 26.4038 27.6343C26.8527 28.0833 27.4596 28.8897 27.4596 28.8897C27.4596 28.8897 27.8088 29.3719 27.9667 29.721C28.1662 30.145 28.3242 30.7852 28.3242 30.7852C28.3242 30.7852 28.3408 30.8932 28.3491 30.9182C28.3658 30.9431 28.3907 30.9681 28.4156 30.9681H28.6235C28.6235 30.9681 28.8812 30.9597 29.0392 30.9182C29.1971 30.8766 29.5712 30.7103 29.8206 30.5773C30.07 30.4443 30.361 30.1949 30.361 30.1949C30.361 30.1949 30.4192 30.145 30.7102 29.8291C31.0012 29.5049 31.1841 29.031 31.2506 28.8481C31.3171 28.6652 31.3753 28.3243 31.4168 27.7258C31.4584 27.1355 31.3753 26.5037 31.3753 26.5037C31.3753 26.5037 31.2672 25.6308 31.2007 25.3315C31.1342 25.0322 30.9762 24.55 30.9762 24.55C30.9762 24.55 30.8682 24.1177 30.8349 23.8433C30.8016 23.569 30.7933 23.1284 30.7933 23.1284C30.7933 23.1284 30.7933 22.854 30.8848 22.3552C30.9762 21.8481 31.2838 21.3493 31.2838 21.3493C31.2838 21.3493 31.367 21.183 31.6995 20.7839C32.0404 20.3766 32.1484 20.3101 32.481 20.069C32.747 19.8778 33.0962 19.5702 33.2043 19.645C33.329 19.7281 33.0796 19.8778 33.0047 19.9609C32.7969 20.1687 32.4062 20.5345 32.0902 21.0832C31.8159 21.5571 31.7161 21.873 31.6413 22.1889C31.5748 22.4965 31.5997 22.8374 31.6081 22.9538C31.6164 23.0702 31.6829 23.0286 31.6829 23.0286C31.6829 23.0286 32.3563 22.4882 32.7221 22.0809C33.1128 21.6402 33.4703 20.8505 33.6033 20.8421C33.6948 20.8421 33.7363 21.05 33.7197 21.1414C33.6283 21.5488 33.6033 21.5987 33.4703 21.873C33.3207 22.1889 33.1793 22.322 32.9632 22.6046C32.7387 22.9039 32.6306 23.0203 32.456 23.4193C32.1983 23.993 32.348 24.4336 32.348 24.4336C32.348 24.4336 32.3812 24.6996 32.4976 24.6996C32.6971 24.6996 33.1461 24.1343 33.437 23.6771C33.6532 23.3362 33.728 22.9538 33.8693 22.7459C33.994 22.563 34.1104 23.0369 34.0522 23.3196C33.9857 23.6521 33.8278 23.9514 33.462 24.417C33.1045 24.8742 33.1211 25.3148 33.1211 25.3148C33.1211 25.3148 33.0796 25.5144 33.0546 25.9467C33.0297 26.379 33.1461 27.0357 33.1461 27.0357C33.1461 27.0357 33.2541 27.5844 33.2791 28.0001C33.304 28.4158 33.2791 29.3719 32.8967 30.1118C32.7387 30.4111 32.4062 30.8184 32.4062 30.8184C32.4062 30.8184 32.1484 31.0844 31.9406 31.2341C31.7328 31.392 31.2256 31.6248 31.2256 31.6248C31.2256 31.6248 30.8765 31.7495 30.8266 31.7578C30.7767 31.7662 30.7434 31.816 30.7434 31.816C30.7434 31.816 30.7767 31.8826 30.785 31.9075C30.8016 31.9324 30.8931 32.1735 30.8931 32.1735C30.8931 32.1735 31.0012 32.5144 31.0344 32.7887C31.076 33.0548 31.0344 33.1213 30.9929 33.3291C30.9513 33.5286 30.8681 33.4372 30.8432 33.8279C30.8266 34.1688 30.9845 34.3434 30.9513 34.7341C30.943 34.9004 30.7434 34.5263 30.652 34.36C30.4525 34.0025 30.5024 33.4621 30.494 33.3291C30.494 33.1961 30.4774 33.0464 30.4275 32.8719C30.361 32.6557 30.2779 32.4811 30.1698 32.3481C30.07 32.2151 29.9537 32.1403 29.9204 32.1486C29.8871 32.1569 29.8788 32.2317 29.8788 32.265C29.8788 32.2982 29.9453 32.4312 29.9703 32.4562C29.9869 32.4811 30.1199 32.7222 30.1199 32.7222C30.1199 32.7222 30.1781 32.9051 30.2031 33.2543C30.228 33.6118 30.1199 34.0441 30.1199 34.0441C30.1199 34.0441 29.9786 34.5346 29.829 34.8256C29.6627 35.1498 29.2969 35.5821 29.2969 35.5821C29.2969 35.5821 29.0309 35.8232 28.8313 36.2222C28.6318 36.613 28.8064 36.7959 28.7316 36.8374C28.6567 36.8873 28.4988 36.613 28.4572 36.4218C28.4156 36.2472 28.4406 36.164 28.5071 35.9645C28.5736 35.7733 28.7316 35.5073 28.7316 35.5073L28.9727 35.0999C28.9727 35.0999 29.2553 34.5512 29.3468 34.1605C29.4382 33.7697 29.3385 33.3291 29.3385 33.3291C29.3385 33.3291 29.3218 33.1878 29.2304 33.1878C29.1306 33.1878 29.0641 33.2792 29.0225 33.3873C28.9394 33.6035 29.0558 33.5619 28.9311 33.9277C28.8313 34.2103 28.8064 34.1771 28.7565 34.3434C28.69 34.5429 28.6651 34.7506 28.6651 34.8754C28.6651 35.0001 28.5985 34.9503 28.5985 34.9503C28.5985 34.9503 28.4822 34.7258 28.4822 34.4431C28.4822 34.2935 28.4822 34.202 28.5071 34.0524C28.532 33.8113 28.6318 33.4372 28.6318 33.4372C28.6318 33.4372 28.7399 33.0714 28.7149 32.7305C28.69 32.398 28.5736 32.3315 28.5736 32.3315C28.5736 32.3315 28.5404 32.2899 28.4156 32.2982C28.2826 32.2982 28.2909 32.5393 28.2909 32.5393C28.2909 32.5393 28.2494 32.8719 28.1995 33.0797C28.0582 33.6533 27.867 33.9526 27.5261 34.4348C27.2185 34.8671 26.8028 35.2495 26.595 35.4324C26.3871 35.6153 25.747 36.0809 25.747 36.0809L24.9988 36.5797C24.9988 36.5797 24.6995 36.8707 24.5665 37.2115C24.4251 37.5524 24.4335 37.8267 24.5166 38.1427C24.5997 38.4586 24.7078 38.6082 24.7743 38.6914C24.8325 38.7828 24.9489 38.9325 24.9905 39.1153C25.0154 39.2317 24.9905 39.2982 25.0071 39.4146C25.0071 39.5144 25.0237 39.5726 25.0237 39.6724C25.0237 39.8303 25.0487 39.9466 24.9572 40.0714C24.8907 40.1711 24.7078 40.2543 24.7078 40.2543C24.7078 40.2543 24.5083 40.3458 24.3836 40.4206C23.1116 41.1937 22.6627 41.6842 21.9394 42.5405C21.7149 42.8149 21.8812 42.7983 21.6318 43.1225C21.4821 43.3137 21.1496 43.3137 21.0166 43.5465C20.8503 43.8624 21.4073 44.17 20.7589 44.4527C19.9275 44.8101 18.4976 44.5524 18.4726 44.4443C18.3978 44.1367 18.7553 43.7793 18.88 43.6379C19.4619 42.9978 19.9857 42.9812 20.1686 42.4574C20.2102 42.3493 20.1935 42.2496 20.6591 41.9087C20.9833 41.6676 22.2886 40.6866 22.8539 40.0382C23.0451 39.8137 23.2114 39.664 23.3028 39.423C23.3859 39.1819 23.2197 39.0239 23.2197 39.0239L22.9869 38.6415L22.538 37.8434C22.538 37.8434 22.3551 37.4194 22.247 37.1783C22.1472 36.9372 21.9477 36.2721 21.9477 36.2721C21.9477 36.2721 21.8064 35.6818 21.7814 35.2911C21.7399 34.5928 21.8313 34.1937 22.0142 33.5203C22.2553 32.6474 22.7874 32.2816 23.0035 31.417C23.0617 31.1676 23.0783 30.7353 22.9536 30.7602C22.8289 30.7768 22.8206 31.1177 22.7292 31.3505C22.3883 32.2068 21.9311 32.5809 21.6817 33.4788C21.5154 34.0773 21.4489 34.4348 21.4489 35.0583C21.4489 35.4158 21.4323 35.3493 21.532 35.9728C21.5653 36.2056 21.6235 36.322 21.69 36.5465C21.7399 36.7044 21.8646 37.0037 21.8646 37.0037C21.8646 37.0037 22.0475 37.3944 22.1057 37.6688C22.1223 37.7602 22.1472 37.8184 22.1389 37.9099C22.1306 38.0762 22.1555 38.1094 22.0724 38.2591C21.9726 38.442 22.0308 38.5499 21.7232 38.6165C21.4489 38.6747 20.8752 38.4918 20.8752 38.4918C20.8752 38.4918 18.5308 37.7769 17.0344 37.9847C16.7351 38.0263 16.5771 38.1343 16.2778 38.126C16.0118 38.126 15.8705 37.9099 15.5961 37.993C15.5379 38.0096 15.5213 38.0512 15.4714 38.0845C15.0724 38.3588 15.38 38.8244 14.3325 38.5833C13.6923 38.4336 12.9109 38.0429 13.0522 37.7935C13.2351 37.4693 13.4762 37.4111 13.9833 37.2032C14.5237 36.9788 15.3384 37.0453 15.4964 37.0286C15.6959 37.012 15.9786 36.879 16.3277 36.8707C16.9346 36.8624 17.0427 36.9289 17.0427 36.9289L18.0736 37.0203L20.0356 37.0453C20.0356 37.0453 20.3847 37.0203 20.5261 36.9871C20.6674 36.9621 20.7755 36.6795 20.8586 36.5548C20.9334 36.4218 20.8586 36.2305 20.8586 36.2305L20.8004 36.1391L20.6175 35.8398L20.2684 35.2579L19.8859 34.493C19.8859 34.493 19.6365 33.9609 19.5035 33.6118C19.3705 33.2626 19.2957 33.0714 19.2042 32.7056C19.1128 32.3315 19.0546 32.0322 19.0463 31.7329C19.0296 31.3089 19.0047 30.9681 19.1211 30.6189" fill="#010101"/>
<path d="M31.9572 29.8459C32.3728 29.3138 32.4061 28.8232 32.431 28.1249C32.4477 27.6178 32.2565 26.8364 32.2565 26.8364L32.2315 26.7782C32.2315 26.7782 32.1567 26.6867 32.1151 26.8114C32.1151 26.9195 32.1401 27.011 32.1401 27.011L32.165 28.0168C32.165 28.0168 32.1317 28.524 31.9572 29.0395C31.6662 29.9207 30.9013 30.3114 30.785 30.6274C30.5937 31.1594 31.4583 30.486 31.9572 29.8459Z" fill="white"/>
<path d="M27.6091 31.4668C27.6091 31.4668 27.4429 31.5167 27.4345 31.6829C27.4345 31.8492 27.4761 31.9989 27.4761 32.1984C27.4761 32.4561 27.235 32.7554 27.3847 32.8468C27.6424 33.0131 27.8668 31.8492 27.792 31.6746C27.7089 31.5001 27.6341 31.4668 27.6091 31.4668Z" fill="white"/>
<path d="M24.6911 39.5561C24.6911 39.5561 24.6413 39.5312 24.5498 39.5644C24.4584 39.5977 24.4584 39.6975 24.4584 39.6975C24.4584 39.6975 24.4417 39.7972 24.5166 39.8138C24.5914 39.8221 24.7161 39.6392 24.7161 39.6143C24.7161 39.5894 24.6911 39.5479 24.6911 39.5479" fill="white"/>
<path d="M21.9479 41.5097C21.9479 41.5097 21.9229 41.5346 21.9479 41.5596C21.9728 41.5762 22.006 41.5596 22.006 41.5596C22.006 41.5596 22.4798 41.1855 22.7625 40.9278C23.0618 40.6451 23.4859 40.1713 23.4859 40.1713C23.4859 40.1713 23.5108 40.138 23.4859 40.1047C23.4526 40.0715 23.3695 40.1213 23.303 40.1546C23.2448 40.1795 23.2115 40.2211 23.1616 40.2544C23.1201 40.2876 22.9787 40.4373 22.9787 40.4373L22.6129 40.7948L22.3885 41.0109L22.1639 41.227L22.0725 41.3351C22.0725 41.3351 22.0476 41.3767 22.0393 41.385C22.0393 41.3933 22.006 41.4266 22.006 41.4266C22.006 41.4266 21.9728 41.4599 21.9728 41.4682C21.9728 41.4765 21.9645 41.4848 21.9645 41.5014C21.9645 41.5097 21.9645 41.5263 21.9645 41.5263" fill="white"/>
<path d="M21.1247 42.0417C21.1247 42.0417 21.0748 42.0001 20.9917 42.0417C20.9085 42.0832 20.8254 42.1995 20.8171 42.2079C20.8171 42.2245 20.7672 42.2827 20.7921 42.3326C20.8254 42.3824 20.9252 42.3076 20.9418 42.3076C20.9584 42.3076 21.0914 42.1996 21.0914 42.1996C21.0914 42.1996 21.1663 42.1497 21.1247 42.0417Z" fill="white"/>
<path d="M19.5534 43.6379C19.5534 43.6379 19.4869 43.5132 19.3954 43.563C19.304 43.6129 19.2624 43.6296 19.1793 43.7459C19.1627 43.7626 19.0795 43.879 19.0629 43.9039C19.0463 43.9372 18.9631 44.0951 19.1377 44.1117C19.437 44.1284 19.2458 43.9372 19.3456 43.8624C19.4287 43.8042 19.5866 43.8208 19.5866 43.7543C19.5866 43.6878 19.5451 43.6379 19.5451 43.6379" fill="white"/>
<path d="M14.1661 37.2781C14.1661 37.2781 13.9832 37.3197 13.9666 37.3862C13.95 37.4527 14.0747 37.5109 14.0913 37.5192C14.1079 37.5192 14.1495 37.5691 14.2742 37.4859C14.3906 37.4028 14.3906 37.3363 14.3906 37.3363C14.3906 37.3363 14.4654 37.2532 14.1661 37.2781Z" fill="white"/>
<path d="M17.134 37.1867C17.134 37.1867 17.134 37.1201 17.001 37.1284C16.868 37.1284 16.843 37.1617 16.843 37.1783C16.843 37.1949 16.843 37.2282 16.9677 37.2365C17.0841 37.2448 17.134 37.2365 17.134 37.1783" fill="white"/>
<path d="M19.9276 37.2699C19.6949 37.2699 19.7696 37.2699 19.62 37.2866C19.3539 37.3032 19.2126 37.2866 18.9549 37.2699C18.5891 37.245 18.0321 37.1535 18.0321 37.1535C18.0321 37.1535 17.9656 37.1369 17.9324 37.1868C17.9074 37.2284 17.9989 37.3281 18.0903 37.3531C18.5476 37.4944 18.5725 37.4695 18.8884 37.4778C19.063 37.4778 19.1628 37.4611 19.3374 37.4528C19.5535 37.4362 19.6615 37.4695 19.9026 37.4113C19.9691 37.3946 20.0274 37.2782 19.936 37.2782" fill="white"/>
<path d="M21.5072 36.7959C21.5072 36.7959 21.4573 36.7377 21.3659 36.7959C21.2661 36.8458 21.2079 36.9455 21.2079 36.9455C21.2079 36.9455 21.1663 37.012 21.2578 37.0037C21.3576 36.9954 21.4407 36.9538 21.4656 36.9372C21.4906 36.9206 21.5571 36.8541 21.5072 36.7959Z" fill="white"/>
<path d="M20.1352 17.8742C20.1352 17.8742 20.8003 17.2507 21.2742 16.4277C21.5568 15.9372 21.6815 14.7898 21.4404 15.0808C21.3324 15.2055 21.1993 15.8041 20.9915 16.2448C20.6922 16.8683 20.0521 17.7578 20.0521 17.7578C20.0521 17.7578 19.9191 18.0571 20.1435 17.8825" fill="white"/>
<path d="M17.4749 19.4622C17.4749 19.4622 17.4001 19.5204 17.4333 19.6035C17.4666 19.6867 17.5996 19.6285 17.5996 19.6285C17.5996 19.6285 17.9072 19.5121 18.2314 19.4954C18.5557 19.4788 19.0046 19.5786 19.0046 19.5786C19.0046 19.5786 19.2207 19.6368 19.254 19.6534C19.2872 19.67 19.4036 19.7199 19.4203 19.7282C19.4369 19.7282 19.5533 19.7947 19.6115 19.7282C19.678 19.67 19.2207 19.2627 18.7635 19.2045C17.9986 19.0964 17.4915 19.4289 17.4915 19.4289L17.4666 19.4539L17.4749 19.4622Z" fill="white"/>
<path d="M14.3159 22.1638C14.3741 22.2053 14.6235 21.7232 14.8397 21.4156C14.9976 21.1912 15.2803 20.8087 15.2803 20.8087C15.2803 20.8087 15.405 20.6342 15.1888 20.7339C15.0974 20.7755 14.8563 20.9584 14.6817 21.2992C14.532 21.5902 14.2494 22.1222 14.3076 22.1638" fill="white"/>
<path d="M12.5449 20.044C12.5449 20.044 12.4867 20.2352 12.7111 20.468C12.9356 20.7091 12.9938 20.9003 13.1351 20.7589C13.1767 20.7174 12.9938 20.4015 12.9024 20.31C12.8109 20.2186 12.7444 20.1521 12.7444 20.1521L12.6862 20.1022L12.6114 20.0606L12.5698 20.044C12.5698 20.044 12.5615 20.0357 12.5449 20.044Z" fill="white"/>
<path d="M11.8217 18.2315C11.8217 18.2315 11.5807 18.273 11.5225 18.3894C11.4643 18.5058 11.7968 18.431 11.7968 18.431C11.7968 18.431 12.0213 18.4476 12.0213 18.3562C12.0213 18.273 11.9963 18.2647 11.8134 18.2231" fill="white"/>
<path d="M8.0141 24.5415C7.8894 24.5082 7.87277 24.7493 7.85615 24.8241C7.83952 24.8989 7.91433 25.0569 7.93927 25.0569C7.96421 25.0569 8.06398 24.9073 8.07229 24.8324C8.07229 24.7576 8.12218 24.583 8.0141 24.5498" fill="white"/>
<path d="M11.9714 29.247C11.9714 29.247 11.7552 29.0724 11.722 29.1389C11.6887 29.2054 11.9049 29.513 11.9049 29.513C11.9049 29.513 11.9714 29.6128 12.0712 29.5629C12.1709 29.513 12.1377 29.4049 12.1377 29.4049C12.1377 29.4049 12.0712 29.2636 11.9797 29.2387" fill="white"/>
<path d="M10.3172 24.1596C10.3172 24.1596 10.259 24.1429 10.2424 24.2094C10.2257 24.276 10.2257 24.384 10.2091 24.517C10.2008 24.6251 10.234 24.8995 10.234 24.8995C10.234 24.8995 10.259 25.1156 10.3005 25.2486C10.3504 25.39 10.4751 25.5978 10.4751 25.5978C10.4751 25.5978 10.525 25.7059 10.5832 25.6976C10.6414 25.6976 10.6248 25.6227 10.6248 25.6227C10.6248 25.6227 10.4419 24.8995 10.4336 24.8163C10.4086 24.5752 10.4169 24.2843 10.4169 24.2843V24.2427C10.4169 24.2427 10.4169 24.1679 10.3172 24.1596Z" fill="white"/>
<path d="M10.6083 21.9396C10.6083 21.9396 10.5085 21.9229 10.4171 22.1142C10.3256 22.3054 10.3422 22.3885 10.3505 22.3968C10.3505 22.4051 10.4337 22.3968 10.5501 22.2222C10.6665 22.0393 10.6415 21.9728 10.6415 21.9728C10.6415 21.9728 10.6415 21.9396 10.6083 21.9396Z" fill="white"/>
<path d="M13.3849 23.9513C13.3849 23.9513 13.5096 24.1342 13.2768 24.0926C13.044 24.051 12.5535 23.6603 12.354 23.5605C12.1545 23.4608 11.8302 23.4192 11.9632 23.3028C11.9882 23.2779 11.9965 23.2612 12.0381 23.2612C12.0796 23.2612 12.2127 23.3111 12.221 23.3194C12.2293 23.3194 12.5785 23.4691 12.5868 23.4691C12.6034 23.4691 12.7946 23.5605 12.9359 23.6353C13.0773 23.7185 13.2934 23.8764 13.2934 23.8764L13.3932 23.9596L13.3849 23.9513Z" fill="white"/>
<path d="M19.8526 29.5217C19.9192 29.7212 19.1127 29.0977 18.6887 28.7651C17.5498 27.8922 16.1614 26.0965 16.336 25.9385C16.4773 25.8055 17.051 26.6285 17.8823 27.5347C18.7719 28.4991 19.8111 29.4053 19.8526 29.5217Z" fill="white"/>
<path d="M23.1949 28.6652C22.9455 28.9312 22.8624 29.2721 23.0037 29.5215C23.1451 29.7709 23.1866 29.164 23.3446 28.9811C23.4776 28.8315 23.5607 28.848 23.7769 28.6984C24.151 28.4323 23.5109 28.3326 23.1949 28.6652Z" fill="white"/>
<path d="M21.7649 23.0036C21.5986 22.9787 21.5986 23.2364 21.6236 23.4193C21.7399 24.2424 22.1057 24.8742 22.5962 25.4728C22.8955 25.8386 23.7186 26.4787 23.8183 26.3789C23.8516 26.3374 23.0369 25.7139 22.5131 24.8991C22.1473 24.3255 21.9478 23.835 21.8979 23.3611C21.8979 23.3029 21.9062 23.0286 21.7566 23.0036" fill="white"/>
<path d="M18.5809 10.8076C18.2068 11.0072 17.5666 11.1817 17.5666 11.1817C17.5666 11.1817 17.5334 11.2483 17.6165 11.2399C18.1652 11.1984 18.3814 11.1236 18.6723 10.9988C18.9633 10.8741 19.1795 10.5167 19.1795 10.5167C19.1795 10.5167 19.2958 10.3005 19.0797 10.4751C19.0132 10.5333 18.7887 10.6912 18.5809 10.7993" fill="white"/>
<path d="M23.0615 9.39442C23.0615 9.39442 22.9368 9.36948 22.8537 9.41936C22.7706 9.46924 22.7955 9.51912 22.7955 9.51912C22.7955 9.51912 22.9285 9.61889 23.02 9.63551C23.1114 9.65214 23.3193 9.73527 23.3026 9.66877C23.2943 9.60226 23.1779 9.47755 23.1447 9.4443C23.1031 9.41105 23.0615 9.40273 23.0615 9.40273" fill="white"/>
<path d="M20.9501 13.2601C20.9751 13.3017 21.3492 13.202 21.4905 13.1189C21.6069 13.0524 21.6485 12.8445 21.6485 12.8445C21.6485 12.8445 21.6817 12.6367 21.6318 12.7198C21.4157 13.069 20.9252 13.2186 20.9501 13.2601Z" fill="white"/>
<path d="M20.9417 12.2958C21.0914 12.0048 20.5261 12.595 20.2352 12.753C20.0606 12.8444 19.7696 12.9691 19.7696 12.9691C19.7696 12.9691 19.6948 13.0606 19.8029 13.0606C19.9109 13.0523 20.177 13.1437 20.3931 12.9775C20.443 12.9359 20.6758 12.6034 20.6758 12.6034C20.6758 12.6034 20.8669 12.4371 20.9417 12.3041" fill="white"/>
<path d="M20.8504 13.5347C20.8587 13.5846 21.4989 13.5679 21.6568 13.5181C21.7815 13.4848 21.8481 13.2603 21.8481 13.2603C21.8481 13.2603 21.9229 13.0691 21.8564 13.1356C21.5654 13.4266 20.8338 13.4931 20.8421 13.5347" fill="white"/>
<path d="M10.6164 19.3708C10.6164 19.3708 10.5167 19.3375 10.4003 19.5204C10.2839 19.7033 9.74351 20.5097 9.84328 20.6344C9.95135 20.7758 10.4169 19.9028 10.5582 19.7449C10.6996 19.5786 10.6414 19.4123 10.6414 19.4123C10.6414 19.4123 10.6414 19.3708 10.6164 19.3708Z" fill="white"/>
<path d="M22.2968 34.069C22.2386 34.3351 22.3134 34.8921 22.3965 35.0001C22.621 35.2745 22.488 34.5761 22.5129 34.3267C22.5379 34.094 22.5711 34.0191 22.6875 33.7697C22.887 33.3291 22.4132 33.4954 22.2885 34.069" fill="white"/>
<path d="M20.3434 10.5166C20.3434 10.5166 20.1688 10.5167 20.0275 10.5998C19.8861 10.6746 19.8529 10.7826 19.8529 10.7826C19.8529 10.7826 19.8279 10.8575 19.8529 10.8991C19.8944 10.9906 20.0857 10.8492 20.2187 10.8991C20.3268 10.9407 20.3766 10.9656 20.4598 11.0654C20.5346 11.1485 20.6593 11.2732 20.7424 11.2067C20.8256 11.1402 20.7923 10.9573 20.7923 10.9573C20.7923 10.9573 20.7009 10.6663 20.5762 10.5832C20.4515 10.5001 20.3517 10.5083 20.3517 10.5083" fill="white"/>
<path d="M17.4087 12.5451C17.4087 12.5451 17.3089 12.5618 17.3338 12.6782C17.3588 12.7945 17.4253 12.7779 17.4253 12.7779C17.4253 12.7779 17.6331 12.6865 17.6165 12.5701C17.5999 12.4537 17.4087 12.5451 17.4087 12.5451Z" fill="white"/>
<path d="M15.9701 11.8969C15.9701 11.8969 15.862 11.8968 15.7872 12.0298C15.7124 12.1628 15.6708 12.2959 15.6708 12.2959C15.6708 12.2959 15.6376 12.4705 15.6958 12.5287C15.7623 12.5869 15.8288 12.4123 15.9202 12.3541C15.9784 12.3126 16.0117 12.2959 16.0616 12.2544C16.1364 12.2045 16.2611 12.271 16.2528 12.113C16.2445 11.9551 16.0782 11.8802 15.9701 11.8886" fill="white"/>
<path d="M20.6095 10.2342C20.6095 10.2342 20.3684 10.2009 20.3767 10.2924C20.3767 10.3755 20.5097 10.3256 20.5928 10.3589C20.6676 10.3921 20.7175 10.4088 20.784 10.4669C20.8256 10.5085 20.8256 10.5917 20.8838 10.5917C20.9586 10.5917 20.942 10.5584 20.942 10.5584C20.942 10.5584 20.8755 10.3506 20.784 10.2924C20.6926 10.2342 20.6178 10.2342 20.6178 10.2342" fill="white"/>
<path d="M23.3279 11.2151C23.2946 11.3481 23.2696 11.398 23.2696 11.398C23.2696 11.398 23.2032 11.664 23.4691 11.5643C23.7435 11.4645 23.6021 11.5061 23.7933 11.4146C23.9929 11.3232 23.9845 11.373 24.1259 11.3814C24.1758 11.3814 24.2091 11.3814 24.2756 11.373C24.3338 11.3564 24.3088 11.2899 24.1758 11.2483C24.0261 11.2068 23.8432 11.2151 23.6354 11.2151C23.5107 11.2151 23.3527 11.0904 23.3195 11.2151" fill="white"/>
<path d="M23.4526 10.2177C23.4526 10.2177 23.3279 10.1927 23.2448 10.2426C23.1617 10.2925 23.1866 10.3424 23.1866 10.3424C23.1866 10.3424 23.3196 10.4421 23.4111 10.4588C23.5025 10.4754 23.7021 10.5585 23.6937 10.492C23.6854 10.4255 23.569 10.3008 23.5358 10.2675C23.4942 10.2343 23.4526 10.226 23.4526 10.226" fill="white"/>
<path d="M23.9345 12.088C23.9345 12.088 23.8014 12.0631 23.71 12.113C23.6185 12.1628 23.6435 12.2044 23.6435 12.2044C23.6435 12.2044 23.7848 12.3042 23.8846 12.3125C23.9843 12.3291 24.2005 12.4039 24.1922 12.3457C24.1839 12.2792 24.0592 12.1628 24.0259 12.1296C23.9843 12.0963 23.9428 12.088 23.9428 12.088" fill="white"/>
<path d="M23.968 12.7697C23.968 12.7697 23.8266 12.7365 23.7269 12.7947C23.6271 12.8528 23.6603 12.9027 23.6603 12.9027C23.6603 12.9027 23.81 13.0108 23.9098 13.0274C24.0095 13.0441 24.2423 13.1355 24.234 13.0607C24.2257 12.9859 24.101 12.8528 24.0511 12.8113C24.0095 12.7697 23.9596 12.7614 23.9596 12.7614" fill="white"/>
<path d="M24.0343 13.4346C24.0343 13.4346 23.8763 13.4013 23.7766 13.4678C23.6768 13.5343 23.7017 13.5842 23.7017 13.5842C23.7017 13.5842 23.8597 13.7089 23.9761 13.7256C24.0925 13.7422 24.3336 13.8503 24.3253 13.7671C24.3169 13.684 24.1756 13.5343 24.1257 13.4845C24.0759 13.4429 24.026 13.4346 24.026 13.4346" fill="white"/>
<path d="M24.0177 14.2493C24.0177 14.2493 23.8597 14.216 23.76 14.2825C23.6602 14.349 23.6851 14.3989 23.6851 14.3989C23.6851 14.3989 23.8431 14.5236 23.9595 14.5403C24.0759 14.5569 24.317 14.665 24.3087 14.5818C24.3003 14.4987 24.159 14.349 24.1091 14.3075C24.0593 14.2659 24.0094 14.2493 24.0094 14.2493" fill="white"/>
<path d="M23.9095 15.8541C23.9095 15.8541 23.7516 15.8207 23.6518 15.8872C23.552 15.9537 23.577 16.0037 23.577 16.0037C23.577 16.0037 23.7349 16.1283 23.8513 16.1449C23.9677 16.1616 24.2088 16.2697 24.2005 16.1865C24.1922 16.1034 24.0509 15.9537 24.001 15.9122C23.9511 15.8706 23.9012 15.8541 23.9012 15.8541" fill="white"/>
<path d="M24.0094 15.0479C24.0094 15.0479 23.8348 15.0063 23.7101 15.0811C23.5937 15.156 23.627 15.2142 23.627 15.2142C23.627 15.2142 23.8099 15.3555 23.9429 15.3804C24.0759 15.4054 24.3586 15.5218 24.3502 15.4303C24.3419 15.3306 24.1757 15.156 24.1258 15.1061C24.0759 15.0562 24.0094 15.0396 24.0094 15.0396" fill="white"/>
<path d="M23.8347 16.5688C23.8347 16.5688 23.71 16.5438 23.6186 16.5936C23.5355 16.6435 23.5604 16.6934 23.5604 16.6934C23.5604 16.6934 23.6934 16.7932 23.7849 16.8099C23.8763 16.8265 24.0841 16.9096 24.0758 16.8431C24.0675 16.7766 23.9511 16.6436 23.9179 16.6103C23.8763 16.5771 23.8347 16.5688 23.8347 16.5688Z" fill="white"/>
<path d="M23.7101 17.2675C23.7101 17.2675 23.6021 17.2425 23.5356 17.2924C23.4607 17.334 23.4857 17.3755 23.4857 17.3755C23.4857 17.3755 23.5938 17.4587 23.6769 17.4753C23.7517 17.4919 23.9263 17.5584 23.918 17.5002C23.918 17.442 23.8182 17.3423 23.785 17.309C23.7517 17.2841 23.7185 17.2758 23.7185 17.2758" fill="white"/>
<path d="M23.5689 17.899C23.5689 17.899 23.4774 17.8741 23.4109 17.9156C23.3444 17.9572 23.3693 17.9905 23.3693 17.9905C23.3693 17.9905 23.4691 18.0653 23.5356 18.0819C23.6021 18.0902 23.7601 18.1567 23.7518 18.1069C23.7518 18.057 23.6603 17.9655 23.6354 17.9323C23.6104 17.9073 23.5772 17.899 23.5772 17.899" fill="white"/>
<path d="M23.4111 18.4146C23.4111 18.4146 23.3197 18.3897 23.2532 18.4313C23.1867 18.4728 23.2116 18.5062 23.2116 18.5062C23.2116 18.5062 23.3114 18.581 23.3779 18.5976C23.4444 18.6059 23.6024 18.6724 23.594 18.6225C23.594 18.5726 23.5026 18.4812 23.4776 18.448C23.4527 18.423 23.4195 18.4146 23.4195 18.4146" fill="white"/>
<path d="M23.2365 19.0135C23.2365 19.0135 23.1617 18.9968 23.1118 19.03C23.062 19.0633 23.0786 19.0882 23.0786 19.0882C23.0786 19.0882 23.1617 19.1464 23.2116 19.163C23.2698 19.1713 23.3862 19.2212 23.3862 19.188C23.3862 19.1464 23.3114 19.0716 23.2864 19.0466C23.2615 19.0217 23.2365 19.0218 23.2365 19.0218" fill="white"/>
<path d="M23.0202 19.5703C23.0202 19.5703 22.9537 19.5537 22.9121 19.587C22.8705 19.6119 22.8789 19.6369 22.8789 19.6369C22.8789 19.6369 22.9454 19.6868 22.9952 19.6951C23.0451 19.6951 23.1449 19.7449 23.1449 19.7116C23.1449 19.6784 23.0784 19.6119 23.0618 19.5953C23.0451 19.5787 23.0202 19.5703 23.0202 19.5703Z" fill="white"/>
<path d="M22.7956 20.1106C22.7956 20.1106 22.7291 20.0939 22.6875 20.1272C22.6459 20.1521 22.6542 20.1771 22.6542 20.1771C22.6542 20.1771 22.7208 20.227 22.7706 20.2353C22.8205 20.2353 22.9203 20.2852 22.9203 20.252C22.9203 20.2187 22.8538 20.1521 22.8371 20.1355C22.8205 20.1189 22.7956 20.1106 22.7956 20.1106Z" fill="white"/>
<path d="M8.3548 22.8207C8.3548 22.8207 8.24672 23.0368 8.2966 23.1532C8.3548 23.2696 8.50445 22.962 8.50445 22.962C8.50445 22.962 8.6624 22.6544 8.5959 22.5962C8.52939 22.538 8.49613 22.696 8.3548 22.8124" fill="white"/>
<g style="mix-blend-mode:darken">
<mask id="mask0_83_1147" style="mask-type:luminance" maskUnits="userSpaceOnUse" x="13" y="41" width="5" height="7">
<g style="mix-blend-mode:darken">
<path d="M17.4749 41.6426H13.1768V47.5287H17.4749V41.6426Z" fill="white"/>
</g>
</mask>
<g mask="url(#mask0_83_1147)">
<mask id="mask1_83_1147" style="mask-type:luminance" maskUnits="userSpaceOnUse" x="13" y="41" width="5" height="7">
<g style="mix-blend-mode:darken">
<path d="M17.4749 41.6426H13.1768V47.5287H17.4749V41.6426Z" fill="white"/>
</g>
</mask>
<g mask="url(#mask1_83_1147)">
<path d="M16.8264 41.8257C16.8264 41.8257 16.7433 41.7175 16.6601 41.7924C16.5853 41.8672 16.4772 42.0003 16.2943 41.9837C16.1114 41.967 16.0283 41.942 15.9286 41.9004C15.8288 41.8589 15.6875 41.7841 15.6875 41.7841C15.6875 41.7841 15.3133 41.6427 14.9974 41.6344C14.6815 41.6261 14.1661 41.7592 13.9167 42.0252C13.6673 42.2996 13.6008 42.5738 13.6008 42.5738C13.6008 42.5738 13.5176 43.0643 13.6589 43.2971C13.8003 43.5216 13.9582 43.7627 14.3074 43.9788C14.6566 44.195 14.8062 44.2699 14.8062 44.2699L15.4131 44.5441L15.9701 44.752C15.9701 44.752 16.7765 44.9932 16.8763 45.6001C16.9761 46.2153 16.6103 46.9967 15.4962 47.0716C14.3989 47.1464 13.8668 46.6142 13.6922 46.2734C13.5176 45.9325 13.6174 45.6415 13.6174 45.6415L13.6673 45.5502L13.7088 45.5252C13.7088 45.5252 13.8834 45.6416 14.0497 45.6167C14.216 45.5917 14.5236 45.3921 14.457 45.0679C14.3905 44.7354 14.0996 44.6689 13.9582 44.6772C13.8169 44.6939 13.1934 44.8518 13.1768 45.7663C13.1601 46.6808 13.9915 47.163 13.9915 47.163C13.9915 47.163 14.5818 47.5287 15.2468 47.5038C15.9119 47.4705 16.4606 47.2129 16.4606 47.2129C16.4606 47.2129 17.4499 46.7223 17.4749 45.6498C17.4998 44.5774 16.8181 44.2034 16.8181 44.2034C16.8181 44.2034 16.577 44.037 16.3525 43.9289C16.1281 43.8292 15.596 43.5715 15.596 43.5715L15.0556 43.3221L14.7231 43.1392L14.5402 43.0145C14.5402 43.0145 14.0996 42.6737 14.3323 42.2913C14.5651 41.9171 15.2468 42.0584 15.2468 42.0584C15.2468 42.0584 15.7706 42.1665 16.178 42.4658C16.5853 42.7567 16.8264 43.1143 16.8264 43.1143L17.001 43.3886L17.0259 43.4302L17.1756 43.3803C17.1756 43.3803 16.9511 42.7485 16.9096 42.4825C16.868 42.2164 16.8264 41.8091 16.8264 41.8091" fill="#231F20"/>
</g>
</g>
</g>
<g style="mix-blend-mode:darken">
<mask id="mask2_83_1147" style="mask-type:luminance" maskUnits="userSpaceOnUse" x="22" y="41" width="10" height="7">
<g style="mix-blend-mode:darken">
<path d="M31.7161 41.5764H22.804V47.5288H31.7161V41.5764Z" fill="white"/>
</g>
</mask>
<g mask="url(#mask2_83_1147)">
<mask id="mask3_83_1147" style="mask-type:luminance" maskUnits="userSpaceOnUse" x="22" y="41" width="10" height="7">
<g style="mix-blend-mode:darken">
<path d="M31.7161 41.5764H22.804V47.5205H31.7161V41.5764Z" fill="white"/>
</g>
</mask>
<g mask="url(#mask3_83_1147)">
<path d="M23.3193 45.4422C23.3193 45.4422 23.4689 45.6085 23.6601 45.6085C23.8513 45.6085 24.1424 45.4755 24.1341 45.118C24.1341 44.7605 23.7683 44.669 23.7683 44.669C23.7683 44.669 23.2278 44.5443 22.9618 45.093C22.6958 45.6417 22.8454 46.1239 22.8454 46.1239C22.8454 46.1239 22.9701 46.8638 23.7516 47.3044C24.5331 47.7451 25.3811 47.4208 25.3811 47.4208C25.3811 47.4208 26.013 47.213 26.5617 46.5978C27.1103 45.9826 27.3681 45.251 27.3681 45.251L27.5592 44.7771H27.792C27.792 44.7771 28.1079 44.8104 28.3408 44.6275C28.5652 44.4446 28.7066 44.1952 28.7066 44.1952L28.7397 44.1203L28.5984 44.0538C28.5984 44.0538 28.4322 44.27 28.1994 44.2949C27.9666 44.3199 27.7339 44.2783 27.7339 44.2783L27.9583 43.688C27.9583 43.688 28.2161 43.1726 28.2909 43.0479C28.3657 42.9315 28.6649 42.5408 28.6649 42.5408C28.6649 42.5408 29.2801 42.5408 29.8704 42.4161C30.4606 42.2914 30.8264 42.1417 30.8264 42.1417L31.558 41.8341L31.7326 41.7343L31.6745 41.593C31.6745 41.593 31.0094 41.8258 30.0367 41.9422C29.064 42.0503 28.4488 41.9339 28.4488 41.9339L27.3347 41.7593C27.3347 41.7593 27.0022 41.7011 26.7362 41.7011C26.4784 41.7011 25.9464 41.7925 25.9464 41.7925C25.9464 41.7925 25.4143 41.9089 25.1815 42.0918C24.9404 42.2747 24.3751 42.6904 24.6328 43.3306C24.8905 43.9707 25.9547 43.6298 26.1043 43.156L26.1626 43.0063L26.1791 42.9232L26.0877 42.8899L25.9797 43.0146C25.9797 43.0146 25.5806 43.3472 25.273 43.131C24.9654 42.9149 25.1732 42.6156 25.2065 42.5823C25.2397 42.5491 25.4061 42.3496 25.7968 42.2581C26.1959 42.1667 26.7944 42.3163 26.7944 42.3163L27.4428 42.4327C27.4428 42.4327 27.8003 42.4992 27.8169 42.4992C27.8335 42.4992 27.9499 42.5158 27.9499 42.5158L27.7255 42.7652C27.7255 42.7652 27.4012 43.0811 27.1685 43.5384C26.9357 43.9956 26.836 44.2367 26.836 44.2367L26.8111 44.27C26.8111 44.27 26.52 44.3032 26.3371 44.4113C26.1542 44.5194 26.0296 44.694 26.0296 44.694L25.9464 44.8519L26.0628 44.9517C26.0628 44.9517 26.1959 44.8021 26.3538 44.7605C26.5118 44.7189 26.6364 44.7854 26.6364 44.7854C26.6364 44.7854 26.4036 45.3674 26.2872 45.5752C26.1791 45.7831 25.9879 46.1655 25.7219 46.4565C25.4559 46.7474 25.2647 46.9885 24.6578 47.08C24.0509 47.1631 23.6269 46.7724 23.4689 46.5812C23.311 46.3899 23.2196 46.099 23.2113 45.8828C23.203 45.6667 23.311 45.4671 23.311 45.4671" fill="#231F20"/>
</g>
</g>
</g>
<path d="M0 5.15437V3.91566L20.6176 0L41.2353 3.91566V5.15437L20.6176 1.33848L0 5.15437Z" fill="#00994E"/>
</svg>
